<?xml version="1.0" encoding="UTF-8"?>
<svg viewBox="0 0 760 460" xmlns="http://www.w3.org/2000/svg" role="img" font-family="system-ui, -apple-system, sans-serif">
  <title>Idiotypic Network as a Signed-Edge GNN</title>
  <desc>Detector nodes connected by activating (green) and suppressing (red) edges, with one perturbed node whose disturbance propagates and damps to a new equilibrium.</desc>

  <text x="380" y="30" text-anchor="middle" font-size="18" font-weight="700" fill="#0f172a">Idiotypic network as a signed-edge GNN</text>
  <text x="380" y="50" text-anchor="middle" font-size="13" fill="#64748b">Detectors recognize each other. Activation and suppression maintain dynamic equilibrium.</text>

  <g transform="translate(540, 80)">
    <rect x="0" y="0" width="200" height="86" rx="6" fill="#f8fafc" stroke="#cbd5e1"/>
    <line x1="14" y1="22" x2="44" y2="22" stroke="#0d9488" stroke-width="2"/>
    <text x="52" y="26" font-size="12" fill="#0f172a">activating edge</text>
    <line x1="14" y1="46" x2="44" y2="46" stroke="#dc2626" stroke-width="2" stroke-dasharray="4 3"/>
    <text x="52" y="50" font-size="12" fill="#0f172a">suppressing edge</text>
    <circle cx="29" cy="72" r="6" fill="#0d9488"/>
    <text x="52" y="76" font-size="12" fill="#0f172a">detector / antibody</text>
  </g>

  <g>
    <line x1="200" y1="140" x2="310" y2="110" stroke="#0d9488" stroke-width="1.6"/>
    <line x1="310" y1="110" x2="410" y2="150" stroke="#0d9488" stroke-width="1.6"/>
    <line x1="200" y1="140" x2="280" y2="210" stroke="#0d9488" stroke-width="1.6"/>
    <line x1="280" y1="210" x2="380" y2="250" stroke="#0d9488" stroke-width="1.6"/>
    <line x1="170" y1="220" x2="250" y2="330" stroke="#0d9488" stroke-width="1.6"/>
    <line x1="380" y1="250" x2="470" y2="290" stroke="#0d9488" stroke-width="1.6"/>
    <line x1="250" y1="330" x2="370" y2="330" stroke="#0d9488" stroke-width="1.6"/>
    <line x1="200" y1="140" x2="170" y2="220" stroke="#0d9488" stroke-width="1.6"/>

    <line x1="170" y1="220" x2="280" y2="210" stroke="#dc2626" stroke-width="1.6" stroke-dasharray="4 3"/>
    <line x1="310" y1="110" x2="380" y2="250" stroke="#dc2626" stroke-width="1.6" stroke-dasharray="4 3"/>
    <line x1="410" y1="150" x2="470" y2="290" stroke="#dc2626" stroke-width="1.6" stroke-dasharray="4 3"/>
    <line x1="140" y1="310" x2="250" y2="330" stroke="#dc2626" stroke-width="1.6" stroke-dasharray="4 3"/>
    <line x1="370" y1="330" x2="470" y2="290" stroke="#dc2626" stroke-width="1.6" stroke-dasharray="4 3"/>
    <line x1="280" y1="210" x2="370" y2="330" stroke="#dc2626" stroke-width="1.6" stroke-dasharray="4 3"/>
  </g>

  <g>
    <circle cx="200" cy="140" r="10" fill="#0d9488"/>
    <circle cx="310" cy="110" r="10" fill="#0d9488"/>
    <circle cx="410" cy="150" r="10" fill="#0d9488"/>
    <circle cx="170" cy="220" r="10" fill="#0d9488"/>
    <circle cx="280" cy="210" r="14" fill="#f59e0b" stroke="#0f172a" stroke-width="2"/>
    <circle cx="380" cy="250" r="10" fill="#0d9488"/>
    <circle cx="140" cy="310" r="10" fill="#0d9488"/>
    <circle cx="250" cy="330" r="10" fill="#0d9488"/>
    <circle cx="370" cy="330" r="10" fill="#0d9488"/>
    <circle cx="470" cy="290" r="10" fill="#0d9488"/>
  </g>

  <text x="280" y="190" text-anchor="middle" font-size="11" font-weight="700" fill="#b45309">perturbed</text>
  <path d="M 280 224 Q 230 270 250 320" stroke="#f59e0b" stroke-width="1.2" stroke-dasharray="2 3" fill="none"/>
  <path d="M 280 224 Q 340 260 370 320" stroke="#f59e0b" stroke-width="1.2" stroke-dasharray="2 3" fill="none"/>

  <text x="380" y="410" text-anchor="middle" font-size="13" font-weight="500" fill="#0f172a">Perturbation propagates along signed edges and damps. The population settles to a new fixed point.</text>
  <text x="380" y="432" text-anchor="middle" font-size="12" font-style="italic" fill="#64748b">Unsupervised regularization by topology, not by labels.</text>
</svg>