<?xml version="1.0" encoding="utf-8"?>
<!-- Generator: Adobe Illustrator 23.1.1, SVG Export Plug-In . SVG Version: 6.00 Build 0)  -->
<svg version="1.1" id="Layer_1" xmlns="http://www.w3.org/2000/svg" xmlns:xlink="http://www.w3.org/1999/xlink" x="0px" y="0px"
	 viewBox="0 0 216 161.28" style="enable-background:new 0 0 216 161.28;" xml:space="preserve">
<style type="text/css">
	.st0{fill:#FFFFFF;}
</style>
<g>
	<path class="st0" d="M1.83,84.87c0-2.68,0-5.37,0-8.05c3.66,0.21,7.32,0.48,10.98,0.63c7.76,0.32,15.51,0.59,23.51,0.89
		c0.11-1.8,0.21-3.45,0.31-5.01c-0.31-0.18-0.42-0.29-0.55-0.31c-10.4-1.18-20.79-2.37-31.2-3.47C4.4,69.5,3.53,70.19,3.35,70.7
		c-0.63,1.86-1.04,3.79-1.53,5.69c0-25.12,0-50.24,0-75.38c70.78,0,141.56,0,212.35,0c0,24.86,0,49.7,0,74.54
		c-0.58-2.05-1.16-4.11-1.75-6.2c-11.12,1.25-21.9,2.46-32.82,3.68c0.08,1.91,0.16,3.56,0.21,4.86c4.35,0,8.45,0.07,12.53-0.02
		c7.27-0.16,14.54-0.41,21.81-0.62c0,2.54,0,5.08,0,7.63c-0.56,0.03-1.12,0.09-1.68,0.07c-10.18-0.37-20.36-0.75-30.55-1.13
		c-0.68-0.02-1.36,0-2.22,0c0,1.87,0,3.53,0,5.29c10.47,1.16,20.88,2.3,31.27,3.49c1.18,0.14,1.68-0.28,1.93-1.36
		c0.37-1.57,0.83-3.11,1.25-4.67c0,24.57,0,49.14,0,73.71c-34.4,0-68.8,0-103.2,0c-0.34-10.09-0.68-20.18-1.03-30.24
		c-1.43,0-2.46,0-3.64,0c-0.43,10.16-0.86,20.2-1.28,30.24c-34.36,0-68.72,0-103.2,0c0-24.85,0-49.7,0-74.56
		c0.41,1.63,0.92,3.25,1.22,4.9c0.29,1.63,0.99,2.18,2.71,1.94c4.06-0.57,8.15-0.93,12.23-1.39c6.17-0.69,12.33-1.4,18.69-2.12
		c-0.12-1.83-0.22-3.49-0.31-4.81c-4.53,0-8.83-0.07-13.13,0.02C16.1,84.39,8.96,84.65,1.83,84.87z M7.35,100.08
		c1.78,2.01,3.14,3.73,4.71,5.21c0.57,0.54,1.77,0.86,2.53,0.67c7.38-1.87,14.74-3.87,22.1-5.85c0.44-0.12,0.85-0.37,1.31-0.58
		c-0.28-1.71-0.54-3.28-0.84-5.08C27.29,96.31,17.61,98.14,7.35,100.08z M178.17,99.47c0.24,0.2,0.33,0.34,0.45,0.37
		c7.83,2.11,15.67,4.21,23.51,6.28c0.41,0.11,1.08,0.08,1.33-0.18c1.72-1.79,3.37-3.65,5.37-5.86c-10.36-1.95-20.08-3.79-29.85-5.63
		C178.68,96.33,178.43,97.86,178.17,99.47z M208.68,62.03c-1.31-1.59-2.42-2.83-3.41-4.16c-1.34-1.78-2.82-2.42-5.05-1.47
		c-1.67,0.71-3.53,0.97-5.3,1.44c-5.5,1.47-11,2.96-16.62,4.47c0.27,1.81,0.51,3.46,0.79,5.33
		C188.91,65.77,198.58,63.94,208.68,62.03z M7.83,62.09c9.74,1.84,19.42,3.67,29.24,5.53c0.29-1.91,0.54-3.55,0.81-5.33
		c-6.33-1.69-12.52-3.35-18.73-4.99c-6.94-1.83-7.21-1.72-11.22,4.23C7.9,61.59,7.91,61.67,7.83,62.09z M109.93,32.08
		c0.37-10.31,0.74-20.4,1.11-30.53c-2.14,0-3.94,0-5.92,0c0.39,10.24,0.77,20.34,1.15,30.53C107.55,32.08,108.59,32.08,109.93,32.08
		z M98.81,129.9c-1.84,9.77-3.66,19.36-5.52,29.21c2.06,0.32,3.89,0.6,5.86,0.9c1.15-10.22,2.27-20.11,3.4-30.11
		C101.13,129.9,100.09,129.9,98.81,129.9z M99.14,2.01c-2.11,0.34-3.88,0.63-5.85,0.94c1.89,9.95,3.71,19.61,5.52,29.15
		c1.38,0,2.48,0,3.75,0C101.42,22.07,100.3,12.21,99.14,2.01z M117.02,2.05c-1.15,10.18-2.27,20.08-3.41,30.11c1.39,0,2.5,0,3.74,0
		c1.83-9.65,3.65-19.27,5.51-29.14C120.89,2.69,119.05,2.39,117.02,2.05z M113.61,129.95c1.14,10.06,2.27,19.97,3.42,30.1
		c2.08-0.37,3.91-0.71,5.83-1.05c-1.88-9.89-3.7-19.5-5.51-29.05C116.02,129.95,114.92,129.95,113.61,129.95z M87.49,4.43
		c-2.03,0.73-3.77,1.36-5.57,2.02c2.81,8,5.5,15.64,8.18,23.28c1.1,3.13,1.27,3.22,4.83,2.31C92.47,22.94,90.03,13.85,87.49,4.43z
		 M94.96,129.91c-3.83-0.53-3.83-0.53-4.94,2.64c-2.34,6.65-4.68,13.31-7.01,19.96c-0.34,0.97-0.65,1.96-1.02,3.09
		c1.91,0.68,3.61,1.29,5.53,1.97C90.02,148.26,92.47,139.16,94.96,129.91z M121.21,32.18c3.84,0.53,3.85,0.53,5.01-2.78
		c1.44-4.13,2.88-8.26,4.32-12.39c1.2-3.44,2.4-6.88,3.68-10.53c-1.96-0.68-3.7-1.28-5.57-1.92
		C126.12,13.94,123.68,22.99,121.21,32.18z M134.19,155.54c-2.74-7.86-5.39-15.44-8.03-23.02c-1.17-3.34-1.17-3.34-4.93-2.54
		c2.45,9.1,4.9,18.19,7.42,27.56C130.53,156.86,132.22,156.25,134.19,155.54z M86.9,32.6c-3.48-7.95-6.89-15.73-10.38-23.69
		c-1.79,1.05-3.39,1.99-5.06,2.98c3.23,6.12,6.35,12.03,9.47,17.93C82.69,33.14,82.69,33.14,86.9,32.6z M76.57,153.07
		c3.48-7.94,6.88-15.71,10.3-23.52c-4.09-0.74-4.1-0.74-5.87,2.6c-1.91,3.61-3.82,7.22-5.72,10.83c-1.24,2.34-2.47,4.69-3.76,7.15
		C73.25,151.14,74.81,152.05,76.57,153.07z M139.6,9.02c-3.48,7.95-6.88,15.73-10.32,23.57c4.16,0.61,4.15,0.61,5.89-2.67
		c2.11-3.98,4.23-7.97,6.33-11.95c1.04-1.97,2.07-3.95,3.16-6.04C142.91,10.91,141.33,10.01,139.6,9.02z M144.63,150.03
		c-3.22-6.08-6.32-11.93-9.41-17.78c-1.72-3.25-1.72-3.25-5.41-2.9c-0.11,0.01-0.21,0.14-0.46,0.31
		c3.37,7.69,6.75,15.41,10.23,23.34C141.32,151.98,142.88,151.06,144.63,150.03z M175.55,110.38c4.12,1.8,8.18,3.58,12.25,5.33
		c0.28,0.12,0.73,0.09,1.01-0.05c2.3-1.18,4.58-2.41,7.31-3.86c-6.7-2.34-12.85-4.49-19.11-6.67
		C176.5,106.96,176.05,108.58,175.55,110.38z M39.13,105.11c-6.27,2.2-12.39,4.35-19.07,6.7c2.68,1.42,4.73,2.52,6.79,3.58
		c0.42,0.21,1.02,0.48,1.37,0.33c4.13-1.73,8.23-3.53,12.39-5.33C40.08,108.51,39.63,106.91,39.13,105.11z M196.1,50.29
		c-2.65-1.42-4.86-2.63-7.1-3.77c-0.38-0.19-1-0.22-1.39-0.05c-3.94,1.67-7.85,3.4-11.88,5.16c0.49,1.84,0.94,3.5,1.42,5.3
		C183.44,54.73,189.51,52.6,196.1,50.29z M40.44,51.61c-3.99-1.73-7.79-3.4-11.61-5.02c-0.42-0.18-1.04-0.35-1.39-0.17
		c-2.35,1.17-4.64,2.42-7.39,3.88c6.67,2.33,12.76,4.45,18.94,6.61C39.5,55.06,39.94,53.45,40.44,51.61z M77.93,33.16
		c-3.81-6.04-7.52-11.9-11.31-17.91c-1.57,1.36-2.94,2.54-4.23,3.66c0.13,0.38,0.14,0.54,0.22,0.65c2.8,3.81,5.61,7.61,8.41,11.41
		C73.46,34.26,73.46,34.26,77.93,33.16z M138.35,33c0.08,0.24,0.16,0.49,0.24,0.73c1.65-0.2,4.04,0.23,4.81-0.69
		c3.71-4.4,6.99-9.18,10.5-13.93c-1.5-1.28-2.88-2.46-4.42-3.77C145.69,21.36,142.02,27.18,138.35,33z M77.83,129.08
		c-0.07-0.23-0.13-0.46-0.2-0.7c-1.65,0.17-4.05-0.29-4.82,0.61c-3.7,4.39-6.97,9.14-10.49,13.91c1.5,1.29,2.86,2.46,4.39,3.78
		C70.49,140.7,74.16,134.89,77.83,129.08z M138.11,128.71c3.87,6.14,7.53,11.93,11.3,17.91c1.56-1.35,2.93-2.52,4.39-3.78
		c-3.49-4.72-6.85-9.3-10.27-13.85c-0.27-0.36-0.93-0.6-1.4-0.6C140.94,128.39,139.75,128.56,138.11,128.71z M157.97,23.22
		c-3.27,3.79-6.36,7.37-9.67,11.21c1.46,0.21,2.49,0.42,3.53,0.49c0.86,0.06,2.04,0.29,2.54-0.16c2.51-2.23,4.84-4.66,7.29-7.08
		C160.4,26.14,159.29,24.8,157.97,23.22z M161.59,134.18c-2.39-2.31-4.65-4.52-6.95-6.69c-0.32-0.3-0.85-0.61-1.25-0.57
		c-1.58,0.16-3.15,0.47-5.05,0.77c3.28,3.8,6.34,7.35,9.51,11.02C159.13,137.16,160.28,135.76,161.59,134.18z M54.45,27.57
		c2.49,2.47,4.82,4.81,7.2,7.11c0.31,0.3,0.88,0.51,1.29,0.47c1.53-0.16,3.04-0.45,4.9-0.74c-3.31-3.83-6.42-7.44-9.69-11.23
		C56.9,24.66,55.78,25.99,54.45,27.57z M58.28,138.77c3.28-3.8,6.33-7.34,9.59-11.12c-1.48-0.21-2.52-0.42-3.57-0.48
		c-0.86-0.05-2.03-0.25-2.54,0.21c-2.47,2.17-4.76,4.55-7.19,6.92C55.9,135.9,57.01,137.24,58.28,138.77z M173.74,115.68
		c-0.64,1.54-1.2,2.82-1.7,4.12c-0.42,1.1,0.14,1.78,1.18,1.52c2.26-0.55,4.47-1.31,7.18-2.14
		C177.9,117.86,175.93,116.82,173.74,115.68z M35.78,119.18c2.63,0.82,4.74,1.56,6.9,2.11c1.34,0.34,1.89-0.32,1.34-1.67
		c-0.52-1.28-1.07-2.55-1.65-3.93C40.21,116.84,38.25,117.88,35.78,119.18z M180.4,42.9c-2.62-0.82-4.67-1.51-6.74-2.1
		c-1.42-0.4-1.87,0.27-1.37,1.57c0.5,1.3,1.09,2.56,1.67,3.92C176.01,45.22,177.92,44.21,180.4,42.9z M42.21,46.31
		c0.62-1.49,1.15-2.72,1.64-3.96c0.46-1.17,0.12-1.91-1.21-1.55c-2.15,0.57-4.25,1.3-6.83,2.11C38.2,44.18,40.1,45.19,42.21,46.31z
		 M55.99,36.33c-1.79-1.54-3.22-2.76-4.82-4.13c-1.01,1.78-1.87,3.3-2.73,4.82c0.16,0.2,0.32,0.39,0.48,0.59
		C51.11,37.21,53.31,36.82,55.99,36.33z M167.23,37.59c0.14-0.21,0.29-0.43,0.43-0.64c-0.9-1.52-1.79-3.03-2.77-4.7
		c-1.58,1.4-2.95,2.61-4.63,4.11C162.93,36.83,165.08,37.21,167.23,37.59z M160.2,125.77c1.72,1.47,3.04,2.6,4.56,3.9
		c0.97-1.7,1.84-3.21,2.7-4.71c-0.14-0.17-0.29-0.33-0.43-0.5C164.93,124.86,162.84,125.26,160.2,125.77z M51.37,129.71
		c1.56-1.34,2.94-2.52,4.61-3.95c-2.69-0.5-4.82-0.9-6.95-1.3c-0.12,0.21-0.24,0.42-0.36,0.63
		C49.52,126.55,50.38,128.02,51.37,129.71z"/>
	<path d="M1.83,84.87c7.14-0.21,14.27-0.47,21.41-0.62c4.3-0.09,8.6-0.02,13.13-0.02c0.09,1.33,0.19,2.98,0.31,4.81
		c-6.36,0.72-12.52,1.43-18.69,2.12c-4.08,0.46-8.17,0.82-12.23,1.39c-1.72,0.24-2.42-0.31-2.71-1.94c-0.3-1.65-0.8-3.27-1.22-4.9
		C1.83,85.43,1.83,85.15,1.83,84.87z"/>
	<path d="M214.17,86.56c-0.42,1.55-0.88,3.1-1.25,4.67c-0.25,1.08-0.75,1.49-1.93,1.36c-10.4-1.19-20.8-2.33-31.27-3.49
		c0-1.76,0-3.41,0-5.29c0.86,0,1.54-0.02,2.22,0c10.18,0.37,20.36,0.76,30.55,1.13c0.56,0.02,1.12-0.05,1.68-0.07
		C214.17,85.43,214.17,85.99,214.17,86.56z"/>
	<path d="M1.83,76.39c0.49-1.9,0.9-3.83,1.53-5.69c0.17-0.51,1.04-1.2,1.52-1.15c10.41,1.1,20.8,2.29,31.2,3.47
		c0.12,0.01,0.23,0.13,0.55,0.31c-0.1,1.56-0.2,3.21-0.31,5.01c-7.99-0.3-15.75-0.57-23.51-0.89c-3.66-0.15-7.32-0.42-10.98-0.63
		C1.83,76.68,1.83,76.53,1.83,76.39z"/>
	<path d="M214.17,77.24c-7.27,0.21-14.54,0.47-21.81,0.62c-4.09,0.09-8.18,0.02-12.53,0.02c-0.06-1.3-0.13-2.95-0.21-4.86
		c10.91-1.22,21.7-2.43,32.82-3.68c0.59,2.1,1.17,4.15,1.75,6.2C214.17,76.11,214.17,76.68,214.17,77.24z"/>
	<path d="M105.03,160.27c0.43-10.04,0.85-20.08,1.28-30.24c1.18,0,2.21,0,3.64,0c0.34,10.06,0.68,20.15,1.03,30.24
		C108.99,160.27,107.01,160.27,105.03,160.27z"/>
	<path d="M7.35,100.08c10.26-1.94,19.94-3.77,29.81-5.64c0.3,1.8,0.56,3.37,0.84,5.08c-0.46,0.21-0.87,0.46-1.31,0.58
		c-7.36,1.98-14.71,3.98-22.1,5.85c-0.76,0.19-1.96-0.14-2.53-0.67C10.49,103.81,9.14,102.09,7.35,100.08z"/>
	<path d="M178.17,99.47c0.26-1.61,0.51-3.13,0.82-5.02c9.77,1.84,19.49,3.68,29.85,5.63c-2,2.21-3.65,4.07-5.37,5.86
		c-0.25,0.26-0.92,0.29-1.33,0.18c-7.84-2.07-15.68-4.17-23.51-6.28C178.5,99.8,178.41,99.67,178.17,99.47z"/>
	<path d="M208.68,62.03c-10.1,1.91-19.76,3.74-29.59,5.6c-0.28-1.87-0.52-3.51-0.79-5.33c5.62-1.51,11.12-2.99,16.62-4.47
		c1.77-0.47,3.63-0.73,5.3-1.44c2.22-0.95,3.71-0.31,5.05,1.47C206.26,59.19,207.36,60.43,208.68,62.03z"/>
	<path d="M7.83,62.09c0.08-0.42,0.07-0.51,0.11-0.56c4.01-5.95,4.28-6.06,11.22-4.23c6.2,1.64,12.4,3.3,18.73,4.99
		c-0.27,1.78-0.52,3.42-0.81,5.33C27.25,65.77,17.58,63.94,7.83,62.09z"/>
	<path d="M109.93,32.08c-1.34,0-2.37,0-3.66,0c-0.38-10.19-0.76-20.29-1.15-30.53c1.99,0,3.79,0,5.92,0
		C110.67,11.68,110.3,21.77,109.93,32.08z"/>
	<path d="M98.81,129.9c1.27,0,2.32,0,3.74,0c-1.13,10-2.25,19.89-3.4,30.11c-1.97-0.3-3.79-0.58-5.86-0.9
		C95.16,149.27,96.97,139.67,98.81,129.9z"/>
	<path d="M99.14,2.01c1.16,10.21,2.28,20.06,3.42,30.1c-1.27,0-2.37,0-3.75,0c-1.81-9.55-3.64-19.2-5.52-29.15
		C95.26,2.64,97.03,2.35,99.14,2.01z"/>
	<path d="M117.02,2.05c2.03,0.34,3.86,0.64,5.85,0.97c-1.87,9.88-3.69,19.49-5.51,29.14c-1.24,0-2.35,0-3.74,0
		C114.75,22.13,115.87,12.23,117.02,2.05z"/>
	<path d="M113.61,129.95c1.31,0,2.41,0,3.74,0c1.81,9.55,3.63,19.16,5.51,29.05c-1.92,0.35-3.75,0.68-5.83,1.05
		C115.88,149.92,114.76,140.01,113.61,129.95z"/>
	<path d="M87.49,4.43c2.54,9.42,4.98,18.52,7.43,27.61c-3.56,0.91-3.73,0.81-4.83-2.31c-2.68-7.64-5.37-15.28-8.18-23.28
		C83.72,5.79,85.46,5.16,87.49,4.43z"/>
	<path d="M94.96,129.91c-2.49,9.25-4.94,18.35-7.45,27.66c-1.92-0.68-3.62-1.29-5.53-1.97c0.37-1.13,0.68-2.11,1.02-3.09
		c2.33-6.66,4.68-13.31,7.01-19.96C91.13,129.38,91.13,129.38,94.96,129.91z"/>
	<path d="M121.21,32.18c2.48-9.19,4.91-18.24,7.44-27.63c1.87,0.65,3.61,1.25,5.57,1.92c-1.28,3.65-2.48,7.09-3.68,10.53
		c-1.44,4.13-2.88,8.26-4.32,12.39C125.05,32.72,125.05,32.72,121.21,32.18z"/>
	<path d="M134.19,155.54c-1.97,0.71-3.66,1.32-5.54,2c-2.52-9.36-4.97-18.46-7.42-27.56c3.76-0.8,3.76-0.8,4.93,2.54
		C128.81,140.09,131.45,147.67,134.19,155.54z"/>
	<path d="M86.9,32.6c-4.21,0.54-4.21,0.54-5.97-2.78c-3.12-5.91-6.24-11.82-9.47-17.93c1.67-0.98,3.27-1.93,5.06-2.98
		C80.01,16.87,83.41,24.65,86.9,32.6z"/>
	<path d="M76.57,153.07c-1.75-1.02-3.31-1.93-5.06-2.95c1.3-2.46,2.53-4.8,3.76-7.15c1.91-3.61,3.81-7.23,5.72-10.83
		c1.77-3.34,1.78-3.33,5.87-2.6C83.44,137.36,80.04,145.13,76.57,153.07z"/>
	<path d="M139.6,9.02c1.73,0.99,3.31,1.89,5.07,2.9c-1.09,2.09-2.12,4.07-3.16,6.04c-2.11,3.99-4.22,7.97-6.33,11.95
		c-1.74,3.29-1.74,3.29-5.89,2.67C132.72,24.74,136.12,16.96,139.6,9.02z"/>
	<path d="M144.63,150.03c-1.75,1.03-3.31,1.95-5.05,2.97c-3.48-7.93-6.86-15.65-10.23-23.34c0.25-0.17,0.35-0.3,0.46-0.31
		c3.69-0.35,3.69-0.35,5.41,2.9C138.31,138.1,141.41,143.95,144.63,150.03z"/>
	<path d="M175.55,110.38c0.5-1.8,0.95-3.41,1.46-5.26c6.26,2.19,12.42,4.34,19.11,6.67c-2.73,1.45-5.01,2.68-7.31,3.86
		c-0.28,0.14-0.73,0.17-1.01,0.05C183.72,113.96,179.66,112.18,175.55,110.38z"/>
	<path d="M39.13,105.11c0.5,1.79,0.96,3.4,1.48,5.28c-4.16,1.8-8.26,3.61-12.39,5.33c-0.35,0.15-0.96-0.12-1.37-0.33
		c-2.07-1.06-4.11-2.16-6.79-3.58C26.73,109.47,32.85,107.32,39.13,105.11z"/>
	<path d="M196.1,50.29c-6.58,2.31-12.66,4.43-18.94,6.63c-0.48-1.8-0.93-3.47-1.42-5.3c4.02-1.76,7.94-3.48,11.88-5.16
		c0.39-0.17,1.01-0.14,1.39,0.05C191.24,47.66,193.44,48.87,196.1,50.29z"/>
	<path d="M40.44,51.61c-0.5,1.83-0.94,3.45-1.44,5.3c-6.18-2.16-12.27-4.28-18.94-6.61c2.74-1.46,5.04-2.72,7.39-3.88
		c0.35-0.17,0.97-0.01,1.39,0.17C32.65,48.22,36.45,49.88,40.44,51.61z"/>
	<path d="M77.93,33.16c-4.47,1.1-4.47,1.1-6.9-2.19c-2.81-3.8-5.61-7.61-8.41-11.41c-0.08-0.11-0.09-0.26-0.22-0.65
		c1.29-1.11,2.65-2.3,4.23-3.66C70.42,21.26,74.12,27.13,77.93,33.16z"/>
	<path d="M138.35,33c3.67-5.82,7.35-11.64,11.14-17.66c1.54,1.31,2.91,2.48,4.42,3.77c-3.51,4.75-6.79,9.53-10.5,13.93
		c-0.78,0.92-3.17,0.5-4.81,0.69C138.51,33.49,138.43,33.24,138.35,33z"/>
	<path d="M77.83,129.08c-3.67,5.81-7.34,11.62-11.11,17.61c-1.53-1.32-2.9-2.49-4.39-3.78c3.52-4.76,6.79-9.52,10.49-13.91
		c0.77-0.91,3.17-0.45,4.82-0.61C77.7,128.62,77.76,128.85,77.83,129.08z"/>
	<path d="M138.11,128.71c1.65-0.15,2.83-0.32,4.01-0.32c0.48,0,1.13,0.24,1.4,0.6c3.42,4.54,6.78,9.13,10.27,13.85
		c-1.46,1.25-2.82,2.43-4.39,3.78C145.64,140.64,141.98,134.85,138.11,128.71z"/>
	<path d="M157.97,23.22c1.31,1.58,2.42,2.92,3.7,4.45c-2.45,2.42-4.78,4.85-7.29,7.08c-0.5,0.45-1.68,0.21-2.54,0.16
		c-1.04-0.07-2.08-0.28-3.53-0.49C151.61,30.59,154.7,27.01,157.97,23.22z"/>
	<path d="M161.59,134.18c-1.3,1.58-2.45,2.98-3.74,4.54c-3.17-3.67-6.23-7.22-9.51-11.02c1.91-0.3,3.47-0.61,5.05-0.77
		c0.4-0.04,0.93,0.27,1.25,0.57C156.94,129.66,159.2,131.87,161.59,134.18z"/>
	<path d="M54.45,27.57c1.33-1.57,2.45-2.9,3.7-4.39c3.27,3.79,6.38,7.4,9.69,11.23c-1.86,0.29-3.37,0.58-4.9,0.74
		c-0.42,0.04-0.99-0.17-1.29-0.47C59.27,32.38,56.94,30.03,54.45,27.57z"/>
	<path d="M58.28,138.77c-1.27-1.53-2.38-2.87-3.7-4.48c2.43-2.37,4.72-4.75,7.19-6.92c0.51-0.45,1.68-0.25,2.54-0.21
		c1.05,0.06,2.09,0.27,3.57,0.48C64.61,131.43,61.56,134.97,58.28,138.77z"/>
	<path d="M173.74,115.68c2.18,1.15,4.15,2.19,6.67,3.51c-2.71,0.82-4.91,1.59-7.18,2.14c-1.05,0.25-1.6-0.42-1.18-1.52
		C172.54,118.49,173.11,117.21,173.74,115.68z"/>
	<path d="M35.78,119.18c2.47-1.31,4.43-2.35,6.59-3.49c0.58,1.39,1.13,2.65,1.65,3.93c0.55,1.34,0,2.01-1.34,1.67
		C40.52,120.74,38.41,120,35.78,119.18z"/>
	<path d="M180.4,42.9c-2.47,1.3-4.39,2.31-6.44,3.39c-0.58-1.36-1.17-2.62-1.67-3.92c-0.5-1.3-0.05-1.97,1.37-1.57
		C175.73,41.4,177.78,42.08,180.4,42.9z"/>
	<path d="M42.21,46.31c-2.1-1.12-4.01-2.13-6.4-3.4c2.58-0.81,4.69-1.54,6.83-2.11c1.34-0.35,1.67,0.39,1.21,1.55
		C43.36,43.59,42.83,44.81,42.21,46.31z"/>
	<path d="M55.99,36.33c-2.68,0.48-4.88,0.88-7.07,1.28c-0.16-0.2-0.32-0.39-0.48-0.59c0.86-1.52,1.72-3.04,2.73-4.82
		C52.77,33.57,54.2,34.8,55.99,36.33z"/>
	<path d="M167.23,37.59c-2.15-0.38-4.3-0.76-6.97-1.24c1.68-1.49,3.05-2.7,4.63-4.11c0.98,1.67,1.88,3.18,2.77,4.7
		C167.52,37.17,167.38,37.38,167.23,37.59z"/>
	<path d="M160.2,125.77c2.64-0.51,4.73-0.91,6.83-1.31c0.14,0.17,0.29,0.33,0.43,0.5c-0.86,1.51-1.73,3.01-2.7,4.71
		C163.24,128.37,161.92,127.25,160.2,125.77z"/>
	<path d="M51.37,129.71c-0.99-1.69-1.85-3.16-2.71-4.63c0.12-0.21,0.24-0.42,0.36-0.63c2.13,0.4,4.27,0.8,6.95,1.3
		C54.31,127.19,52.94,128.37,51.37,129.71z"/>
</g>
</svg>
