<svg id="Layer_1" data-name="Layer 1" xmlns="http://www.w3.org/2000/svg" viewBox="0 0 360 220.32"><defs><style>.cls-1{fill:#fefefe;}.cls-2{fill:#1b4689;}.cls-3{fill:#73a6d9;}.cls-4{fill:#64c5bb;}.cls-5{fill:#e4b981;}.cls-6{fill:#e07531;}</style></defs><title>sab</title><path class="cls-1" d="M468.94,506.3H141.62a.67.67,0,0,1,0-.2,14.69,14.69,0,0,0,6.19-1.63,9.21,9.21,0,0,0,5-8.61c0-3.71-2-6.17-5.36-7.64-.76-.33-1.56-.6-2.34-.89-2.6-.93-5.35-1.25-8-2.13a1.91,1.91,0,0,1-1.54-1.78,2.12,2.12,0,0,1,1.62-2c2-.69,5.17-.12,5.83,2.77.11.45.21.85.93.79,2.42-.22,4.85-.33,7.29-.46.48,0,.56-.15.49-.64-.54-3.57-2.34-6.14-5.86-7.3a21.42,21.42,0,0,0-8.76-.78,13,13,0,0,0-6.83,2.24,7.7,7.7,0,0,0,.06,12.49,17.45,17.45,0,0,0,4.51,2.14c2.26.78,4.67,1,6.89,1.94a3,3,0,0,1,2.17,3,3.4,3.4,0,0,1-3,2.71c-3.24.45-5.32-.93-6.1-4.1-.11-.47-.14-.81-.79-.77-2.71.18-5.42.22-8.12.59q0-104.46,0-208.9c0-.9.2-1.1,1.1-1.1q178.91,0,357.8,0c.9,0,1.1.2,1.1,1.1q0,101.1,0,202.19c-.42-.25-.2-.65-.22-1a12.79,12.79,0,0,0-9.27-11.81,20,20,0,0,0-12,.06,12,12,0,0,0-8,7.41,18.84,18.84,0,0,0-.15,13.47c2.11,5.77,6.65,8.28,12.57,8.64A.3.3,0,0,1,468.94,506.3ZM154.13,400.8c0-.05-.13-.15-.14-.15-.17.12,0,.18.06.24l.2.28.23.25.24.24a27.43,27.43,0,0,0,4.13,4.92,125.83,125.83,0,0,0,15.09,13.64c1.64,1.27,3.36,2.44,5,3.66a1.59,1.59,0,0,0,2.28,0c.73-.78.43-1.64-.14-2.39a5.88,5.88,0,0,0-1.64-1.37A158.65,158.65,0,0,1,163,408.42c-2.77-2.23-5.36-4.66-8.1-6.92l-.25-.23-.24-.24Zm12.23,20.87a1.9,1.9,0,0,0-.2-.18c-.2.16,0,.2.1.28l.21.27.33.38.23.25.23.26.23.24.25.24a7,7,0,0,0,.55.76,117.81,117.81,0,0,0,25.43,20.92A95.78,95.78,0,0,0,205,451c.58.26,1.22.65,1.74,0a1.72,1.72,0,0,0,0-1.92,3.54,3.54,0,0,0-2.06-1.53A111.49,111.49,0,0,1,186,437.67a125.6,125.6,0,0,1-18.1-14.48l-.25-.24-.23-.24-.25-.25-.18-.17-.4-.38Zm-2.27-19.56.25.24a.76.76,0,0,0,.51.46c.32.29.62.61,1,.88a81.47,81.47,0,0,0,28,14.21,66.47,66.47,0,0,0,9.32,2.12,1.65,1.65,0,0,0,2.09-1.57,1.8,1.8,0,0,0-1.75-2c-.63-.09-1.26-.15-1.89-.24a87.05,87.05,0,0,1-29.7-9.42c-2.36-1.26-4.57-2.77-6.86-4.13a.76.76,0,0,0-.57-.41l-.25-.22a3.87,3.87,0,0,0-.34-.21l-.08.07Zm15.5,13.29-.24-.09.14.2.42.32a3.4,3.4,0,0,0,.32.34,61,61,0,0,0,12.58,7.12,95.44,95.44,0,0,0,35.9,8.2,86.77,86.77,0,0,0,9-.2,89.79,89.79,0,0,0,13.36-1.93,2.68,2.68,0,0,0,2.1-3.34,2.74,2.74,0,0,0-3.36-1.94q-4.89,1.14-9.85,1.86a93.07,93.07,0,0,1-14.44.93c-3.26,0-6.52-.21-9.78-.57a108,108,0,0,1-18.6-3.76,102.79,102.79,0,0,1-17.05-6.9Zm4.92,16.89.26.23c.7.53,1.37,1.09,2.09,1.58,4.06,2.76,7.79,6,12.21,8.21a86.08,86.08,0,0,0,28.28,8.43,84.39,84.39,0,0,0,26.11-.86,95.66,95.66,0,0,0,31.71-12.32c2-1.2,2.53-2.48,1.65-3.93s-2.25-1.49-4.18-.31a88.14,88.14,0,0,1-41,13.21,93.74,93.74,0,0,1-31.16-3.44,110.83,110.83,0,0,1-25.5-10.75l-.35-.12a3.81,3.81,0,0,0-.32-.24s-.08.09-.12.13Zm222.93-60.14c.14.14.29.23.47.05l-.36-.17a69.87,69.87,0,0,0-12.37-4,92.26,92.26,0,0,0-14.4-2.2c-1.61-.11-2.48.55-2.46,1.75s.75,1.6,2.31,1.63c1.8,0,3.59.05,5.39.11a112.59,112.59,0,0,1,12,1C401.21,370.82,404.31,371.56,407.44,372.15Zm38.2,16.73a2,2,0,0,0,.27.17s.07-.08.11-.12l-.33-.1a103.83,103.83,0,0,0-9.72-4,134.16,134.16,0,0,0-41.43-8.39,141.26,141.26,0,0,0-25.66,1.32,130.74,130.74,0,0,0-21.19,4.78,135.12,135.12,0,0,0-26.63,11.88c-3.21,1.85-6.34,3.85-9.48,5.83a2.36,2.36,0,0,0-.74,3.26A2.23,2.23,0,0,0,314,404l.61-.39a146.2,146.2,0,0,1,24.24-13A134.29,134.29,0,0,1,396,380.39a182.56,182.56,0,0,1,20.24,1.74A176.61,176.61,0,0,1,439,387Zm-111-102.53c-14.25,25.35-28.37,50.48-42.61,75.8l-28.59-46.48c-.24.39-.42.65-.57.92l-12.32,22.19-22.44,40.39q-8.34,15-16.64,30.05a1.67,1.67,0,0,1-1.69,1c-4.71,0-9.42.1-14.13-.24-2.5-.18-5-.32-7.51-.48a.64.64,0,0,0,.39.24,95.58,95.58,0,0,0,13.25,1.86A150.44,150.44,0,0,0,281.19,396c6.64-3.32,12.9-7.34,19.49-10.78a232,232,0,0,1,43.07-17.48c11.15-3.22,22.41-5.73,34.14-5.19a.47.47,0,0,0,.57-.29Q356.64,324.45,334.61,286.35ZM429.14,450c-.21-.39-.33-.63-.47-.86l-9.15-15.84q-12.16-21.06-24.35-42.13c-.47-.82-.39-1,.54-1.13q5.42-.94,10.84-1.78a15.12,15.12,0,0,0-1.64-.14,116.25,116.25,0,0,0-24.42,2,159.7,159.7,0,0,0-39.18,12.8c-11.54,5.4-21.67,12.78-31.15,21.18-11.49,10.17-24.07,18.66-38.47,24.24a2.49,2.49,0,1,0,1.8,4.62q3.18-1.2,6.32-2.53a5.75,5.75,0,0,1,2.31-.47h147Zm-91.88,40,.27-.06.47.66q4.86,7.11,9.72,14.23c.32.47.59.86,1.29.85,2.36-.05,4.72,0,7.08,0,.62,0,.81-.16.81-.8q0-14,0-27.92c0-.64-.19-.82-.82-.81-2.2,0-4.4.06-6.59,0-.94,0-1.22.22-1.21,1.18.05,4.6,0,9.19,0,13.78a1.55,1.55,0,0,1-.16,1.07c-.32-.45-.59-.83-.85-1.22-3.2-4.68-6.39-9.35-9.57-14.05a1.41,1.41,0,0,0-1.34-.75c-2.27,0-4.56,0-6.83,0-.68,0-.9.18-.9.87q0,13.9,0,27.8c0,.71.25.87.9.86,2.2,0,4.4-.05,6.6,0,.88,0,1.14-.19,1.13-1.1,0-4.32,0-8.63,0-12.95Zm-139.1,0,.25,0c3.41,5,6.84,10,10.24,15a1.42,1.42,0,0,0,1.34.75q3.4-.07,6.83,0c.74,0,.93-.19.93-.93q0-13.83,0-27.67c0-.72-.17-1-.93-.94-2.08.05-4.16.07-6.23,0-1.05,0-1.42.2-1.4,1.34.07,4.59,0,9.18,0,13.77,0,.29.18.64-.22.9l-.88-1.26q-4.74-7-9.49-13.93c-.29-.43-.53-.82-1.19-.81q-3.54.06-7.08,0c-.64,0-.8.23-.8.83q0,13.95,0,27.91c0,.64.2.8.82.79,2.27,0,4.55-.05,6.83,0,.86,0,1-.31,1-1,0-4.51,0-9,0-13.53Zm231.49,0a6.58,6.58,0,0,0,4.27-4.11,7.13,7.13,0,0,0-6.36-9.47c-6.14-.54-12.31-.1-18.47-.22-.64,0-.7.29-.7.8q0,13.95,0,27.92c0,.62.18.82.81.8,6.07-.16,12.14.26,18.21-.29,5.44-.49,8.49-3.7,8.21-8.84C435.44,493.3,433.72,491.34,429.65,489.94ZM234.16,442.56a70.84,70.84,0,0,0,10.44-.78,91.47,91.47,0,0,0,26.87-8.27,130.52,130.52,0,0,0,28.26-18.76,2,2,0,0,0,.26-3.3,2.39,2.39,0,0,0-3.59-.45c-2.63,1.94-5.23,3.94-7.83,5.93a116.84,116.84,0,0,1-17.1,11.43,75.52,75.52,0,0,1-24.23,7.49c-6.27.91-12.54,1.69-18.93,1.23a87.78,87.78,0,0,1-13.8-2.11,120.8,120.8,0,0,1-14.16-4.4,2.42,2.42,0,0,0-3.46,1.84c-.21,1.19.5,2.16,2.21,2.89A87.79,87.79,0,0,0,234.16,442.56Zm21.17-29.44c0,1.85,1.57,2.73,3.63,2.07a165,165,0,0,0,39.16-18.57,185,185,0,0,1,36.21-18.41,147.59,147.59,0,0,1,29-7.52,3,3,0,0,0,2-1.16,2.06,2.06,0,0,0,.22-2.36c-.41-.77-1.13-.78-2-.68a121.06,121.06,0,0,0-20.2,4.31,202.8,202.8,0,0,0-48,22,155.06,155.06,0,0,1-18.64,10.3c-6.29,2.75-12.72,5.15-19.24,7.28A2.7,2.7,0,0,0,255.33,413.12Zm136.32,92.53c-.06-.24-.08-.39-.13-.53q-5.31-14.13-10.61-28.26c-.23-.63-.57-.73-1.15-.72-2.72,0-5.44,0-8.15,0a1.15,1.15,0,0,0-1.28.92c-.57,1.62-1.18,3.22-1.79,4.82q-4.28,11.38-8.58,22.76c-.35.91-.13,1.06.76,1.05,2.47-.05,4.95,0,7.43,0,.57,0,.86-.16,1-.74.29-1.16.67-2.3,1-3.45a.8.8,0,0,1,.91-.7c3,0,5.91,0,8.87,0a.84.84,0,0,1,1,.75c.29,1.15.69,2.28,1,3.43.11.39.21.71.76.7C385.67,505.63,388.62,505.65,391.65,505.65Zm-205.19,0a1.49,1.49,0,0,0,0-.44q-5.34-14.23-10.69-28.47c-.21-.54-.52-.6-1-.6-2.8,0-5.6,0-8.4,0a.9.9,0,0,0-1.05.68q-5.25,14-10.55,28c-.22.58-.26.84.51.83q3.9,0,7.8,0c.59,0,.81-.19.95-.77.28-1.15.7-2.28,1-3.43a.78.78,0,0,1,.91-.68q4.43,0,8.87,0a.84.84,0,0,1,1,.73c.3,1.16.71,2.28,1,3.43.11.42.22.72.75.72C180.54,505.64,183.49,505.65,186.46,505.65Zm61.35,0c3.05,0,5.92,0,8.8,0,.54,0,.63-.3.74-.72.34-1.19.74-2.36,1.06-3.55a.68.68,0,0,1,.81-.61c3,0,6,0,9,0,.63,0,.81.29,1,.8.32,1.14.7,2.27,1,3.42.11.38.2.66.68.66h9a2.73,2.73,0,0,0-.06-.48q-5.34-14.18-10.66-28.35a.91.91,0,0,0-1.05-.68c-2.76,0-5.52,0-8.28,0a1.06,1.06,0,0,0-1.19.84c-1.24,3.4-2.54,6.78-3.82,10.17Zm77.79,0a1.12,1.12,0,0,0,0-.26q-5.37-14.31-10.74-28.62a.84.84,0,0,0-1-.63c-1.68,0-3.36,0-5,0-1.35,0-3-.42-4,.18s-1.15,2.42-1.64,3.71c-3.09,8.15-6.14,16.31-9.24,24.45-.35.93-.28,1.21.8,1.18,2.36-.07,4.72,0,7.08,0,.72,0,1.17-.08,1.33-.93.22-1.09.63-2.14.92-3.21a.88.88,0,0,1,1-.75q4.38.06,8.76,0a.91.91,0,0,1,1.06.82c.3,1.16.72,2.28,1,3.43a.72.72,0,0,0,.81.64C319.72,505.64,322.63,505.65,325.6,505.65ZM429.18,388.22a1.55,1.55,0,0,0-1.05-.56,136.12,136.12,0,0,0-49-4.13,118,118,0,0,0-27.33,5.74,144.48,144.48,0,0,0-52.18,31.24,2.68,2.68,0,0,0-.83,1.14,2.38,2.38,0,0,0,.88,2.77,2.61,2.61,0,0,0,3.42,0c1.39-1.14,2.72-2.35,4-3.57a135.1,135.1,0,0,1,35.8-24.11,131,131,0,0,1,43.65-11.38,129.37,129.37,0,0,1,17.83-.35,142.82,142.82,0,0,1,19,2.13C425.3,387.44,427.16,387.83,429.18,388.22ZM235.6,476.15c-4.28,0-8.56,0-12.84,0-.75,0-1,.15-1,1,.06,1.79.07,3.59,0,5.39,0,.83.27,1,1,1,2.36,0,4.72,0,7.08,0,1,0,1.26.27,1.25,1.26,0,6.59,0,13.18,0,19.77,0,.89.16,1.24,1.15,1.21,2.23-.09,4.48-.08,6.71,0,1,0,1.35-.19,1.34-1.29-.06-6.59,0-13.18-.06-19.77,0-1,.29-1.19,1.21-1.16,2.39.06,4.79,0,7.19,0,.69,0,.89-.21.88-.88,0-1.79-.08-3.6,0-5.39,0-1-.32-1.09-1.17-1.08C244.08,476.17,239.84,476.15,235.6,476.15Zm77.9-81.92a2.26,2.26,0,0,0-3.52-2.11A125.41,125.41,0,0,0,297.41,400c-6,4.26-11.89,8.74-18.36,12.34-3.11,1.73-6.27,3.34-9.47,4.87a2.8,2.8,0,0,0-1.53,3.79,2.84,2.84,0,0,0,3.71,1.45c.3-.1.6-.22.89-.35A120,120,0,0,0,288.9,413c8.06-5.38,15.34-11.85,23.65-16.89A1.88,1.88,0,0,0,313.5,394.23Zm127.31,96.66c0,4.59,0,9.18,0,13.77,0,.76.16,1,1,1,2.44-.06,4.88-.05,7.32,0,.71,0,.85-.25.85-.9q0-13.85,0-27.68c0-.72-.19-1-.94-.95-2.36.05-4.72.06-7.08,0-.87,0-1.15.18-1.14,1.11C440.84,481.78,440.81,486.33,440.81,490.89ZM412.24,375.4a1.94,1.94,0,0,0-1.24-.69,82,82,0,0,0-20.29-3c-3.67-.11-7.34-.06-11,.12-4.74.25-9.47.65-14.16,1.32a153.21,153.21,0,0,0-24.23,5.44,22.77,22.77,0,0,0-5.48,2,1.88,1.88,0,0,0-.89,2.55c.61,1.07,1.49.66,2.31.35,2-.74,3.93-1.57,5.93-2.25a140,140,0,0,1,49-7.82A128.81,128.81,0,0,1,412.24,375.4ZM236.93,458.88c1.28,0,2.56,0,3.83,0a2.06,2.06,0,0,0,2-2.07,2.24,2.24,0,0,0-2.42-2.25c-2.27-.05-4.54,0-6.82-.14q-4.59-.35-9.13-1.08c-1.38-.22-2.27.37-2.45,1.47a2,2,0,0,0,1.81,2.35A98.45,98.45,0,0,0,236.93,458.88Zm-19.68-5.33a3.08,3.08,0,0,0-3.24-3.19,3.23,3.23,0,1,0,.06,6.45A3.08,3.08,0,0,0,217.25,453.55Zm48.93.18a3.18,3.18,0,0,0-3.19-3.3,3.26,3.26,0,1,0,3.19,3.3ZM248.59,456a3.18,3.18,0,0,0,3.17,3.32,3.27,3.27,0,0,0,3.34-3.19,3.24,3.24,0,0,0-3.21-3.31A3.16,3.16,0,0,0,248.59,456Zm47.62-26.65a3.13,3.13,0,0,0-3.14-3.33,3.24,3.24,0,0,0-3.32,3.2,3.18,3.18,0,0,0,3.19,3.3A3.07,3.07,0,0,0,296.21,429.35Zm-103.45-1.56a3.1,3.1,0,0,0-3.22-3.24,3.13,3.13,0,0,0-3.28,3.2A3.25,3.25,0,0,0,189.5,431,3.17,3.17,0,0,0,192.76,427.79Zm115.65-20.64a3.11,3.11,0,0,0-3.25-3.21,3.18,3.18,0,0,0-3.24,3.26,3.26,3.26,0,0,0,3.3,3.23A3.13,3.13,0,0,0,308.41,407.15Zm-92.62,11.31a3.26,3.26,0,0,0-6.51-.08,3.26,3.26,0,0,0,3.22,3.31A3.22,3.22,0,0,0,215.79,418.46Zm11.56.16a3.1,3.1,0,0,0-3.17-3.29,3.29,3.29,0,0,0,0,6.57A3.14,3.14,0,0,0,227.35,418.62Zm141.49-50.88a3.26,3.26,0,0,0,3.25,3.28,3.31,3.31,0,0,0,3.26-3.29,3.36,3.36,0,0,0-3.28-3.29A3.24,3.24,0,0,0,368.84,367.74ZM232.51,417.9a3.11,3.11,0,0,0,3.19,3.27,3.36,3.36,0,0,0,3.27-3.29,3.32,3.32,0,0,0-3.29-3.26A3.08,3.08,0,0,0,232.51,417.9ZM249.87,416a3.21,3.21,0,0,0-3.15-3.34,3.26,3.26,0,0,0-3.34,3.2,3.36,3.36,0,0,0,3.21,3.36A3.21,3.21,0,0,0,249.87,416Zm10.51,10.75a3,3,0,0,0,3.17-3.23,3.11,3.11,0,0,0-3.26-3.21,3.28,3.28,0,0,0-3.24,3.3A3.15,3.15,0,0,0,260.38,426.78Zm68.53-38.37a3.19,3.19,0,0,0,3.23-3.27,3.38,3.38,0,0,0-3.35-3.22,3.18,3.18,0,0,0-3.15,3.33A3.05,3.05,0,0,0,328.91,388.41Zm-9.61-2a3,3,0,0,0-3.23,3.17,3.25,3.25,0,1,0,6.49,0A3.09,3.09,0,0,0,319.3,386.43Zm111.69,2a2.2,2.2,0,0,0,2,.7Zm15.85.86-.26-.15c0,.05-.07.11-.06.14a.31.31,0,0,0,.16.14S446.76,389.35,446.84,389.29Zm-17.46-1a.4.4,0,0,0,.6,0C429.78,388.12,429.59,388,429.38,388.25ZM179,415.16l.08-.06S179,415,179,415s0,0-.07,0Z" transform="translate(-126 -286)"/><path class="cls-2" d="M468.93,506.09c-5.92-.36-10.46-2.87-12.57-8.64a18.84,18.84,0,0,1,.15-13.47,12,12,0,0,1,8-7.41,20,20,0,0,1,12-.06,12.79,12.79,0,0,1,9.27,11.81c0,.32-.2.72.22,1v3.11c-.34.17-.21.48-.22.74-.47,7.46-5.51,12.48-13,12.94Zm-4.54-15.17a13.33,13.33,0,0,0,.85,5c1,2.32,3.11,3.51,5.92,3.36a5.23,5.23,0,0,0,5-3.94,16.17,16.17,0,0,0,.17-8.4,5.63,5.63,0,0,0-5.69-4.39,5.57,5.57,0,0,0-5.73,4.31A14.68,14.68,0,0,0,464.39,490.92Z" transform="translate(-126 -286)"/><path class="cls-2" d="M126,496c2.7-.37,5.41-.41,8.12-.59.65,0,.68.3.79.77.78,3.17,2.86,4.55,6.1,4.1a3.4,3.4,0,0,0,3-2.71,3,3,0,0,0-2.17-3c-2.22-.91-4.63-1.16-6.89-1.94a17.45,17.45,0,0,1-4.51-2.14,7.7,7.7,0,0,1-.06-12.49,13,13,0,0,1,6.83-2.24,21.42,21.42,0,0,1,8.76.78c3.52,1.16,5.32,3.73,5.86,7.3.07.49,0,.62-.49.64-2.44.13-4.87.24-7.29.46-.72.06-.82-.34-.93-.79-.66-2.89-3.82-3.46-5.83-2.77a2.12,2.12,0,0,0-1.62,2,1.91,1.91,0,0,0,1.54,1.78c2.61.88,5.36,1.2,8,2.13.78.29,1.58.56,2.34.89,3.32,1.47,5.33,3.93,5.36,7.64a9.21,9.21,0,0,1-5,8.61,14.69,14.69,0,0,1-6.19,1.63h-3.86c-.87-.1-1.75-.15-2.61-.29-3.2-.5-5.87-1.83-7.54-4.79a22.57,22.57,0,0,1-1.6-4.55Z" transform="translate(-126 -286)"/><path class="cls-1" d="M472.78,506.08c7.47-.46,12.51-5.48,13-12.94,0-.26-.12-.57.22-.74,0,4.4,0,8.79,0,13.18,0,.6-.13.74-.73.74-4.16,0-8.32,0-12.48,0A.18.18,0,0,1,472.78,506.08Z" transform="translate(-126 -286)"/><path class="cls-1" d="M126,496.48a22.57,22.57,0,0,0,1.6,4.55c1.67,3,4.34,4.29,7.54,4.79.86.14,1.74.19,2.61.29,0,.06,0,.13,0,.19-3.68,0-7.36,0-11,0-.6,0-.74-.14-.73-.74C126,502.55,126,499.51,126,496.48Z" transform="translate(-126 -286)"/><path class="cls-3" d="M472.78,506.08a.18.18,0,0,0,0,.22h-3.84a.3.3,0,0,0,0-.21Z" transform="translate(-126 -286)"/><path class="cls-3" d="M137.78,506.3c0-.06,0-.13,0-.19h3.86a.67.67,0,0,0,0,.2Z" transform="translate(-126 -286)"/><path class="cls-4" d="M334.61,286.35q22.06,38.17,43.85,75.88a.47.47,0,0,1-.57.29c-11.73-.54-23,2-34.14,5.19a232,232,0,0,0-43.07,17.48c-6.59,3.44-12.85,7.46-19.49,10.78a150.35,150.35,0,0,1-79.44,15.61,95.58,95.58,0,0,1-13.25-1.86.64.64,0,0,1-.39-.24c2.5.16,5,.3,7.51.48,4.71.34,9.42.24,14.13.24a1.67,1.67,0,0,0,1.69-1q8.3-15,16.64-30.05l22.44-40.39,12.32-22.19c.15-.27.33-.53.57-.92L292,362.15C306.24,336.83,320.36,311.7,334.61,286.35Z" transform="translate(-126 -286)"/><path class="cls-2" d="M429.14,450h-147a5.75,5.75,0,0,0-2.31.47q-3.13,1.33-6.32,2.53a2.49,2.49,0,1,1-1.8-4.62c14.4-5.58,27-14.07,38.47-24.24,9.48-8.4,19.61-15.78,31.15-21.18a159.7,159.7,0,0,1,39.18-12.8,116.25,116.25,0,0,1,24.42-2,15.12,15.12,0,0,1,1.64.14q-5.43.82-10.84,1.78c-.93.17-1,.31-.54,1.13q12.21,21.06,24.35,42.13l9.15,15.84C428.81,449.34,428.93,449.58,429.14,450Z" transform="translate(-126 -286)"/><path class="cls-2" d="M337.26,490v1.63c0,4.32,0,8.63,0,12.95,0,.91-.25,1.13-1.13,1.1-2.2-.06-4.4,0-6.6,0-.65,0-.9-.15-.9-.86q0-13.89,0-27.8c0-.69.22-.88.9-.87,2.27,0,4.56,0,6.83,0a1.41,1.41,0,0,1,1.34.75c3.18,4.7,6.37,9.37,9.57,14.05.26.39.53.77.85,1.22a1.55,1.55,0,0,0,.16-1.07c0-4.59,0-9.18,0-13.78,0-1,.27-1.21,1.21-1.18,2.19.07,4.39.05,6.59,0,.63,0,.82.17.82.81q0,14,0,27.92c0,.64-.19.81-.81.8-2.36,0-4.72,0-7.08,0-.7,0-1-.38-1.29-.85q-4.85-7.12-9.72-14.23l-.47-.66Z" transform="translate(-126 -286)"/><path class="cls-2" d="M198.16,490v1.15c0,4.51,0,9,0,13.53,0,.73-.11,1.07-1,1-2.28-.06-4.56,0-6.83,0-.62,0-.82-.15-.82-.79q0-14,0-27.91c0-.6.16-.84.8-.83q3.54.06,7.08,0c.66,0,.9.38,1.19.81q4.74,7,9.49,13.93l.88,1.26c.4-.26.22-.61.22-.9,0-4.59,0-9.18,0-13.77,0-1.14.35-1.38,1.4-1.34,2.07.08,4.15.06,6.23,0,.76,0,.93.22.93.94q0,13.83,0,27.67c0,.74-.19.94-.93.93q-3.42-.07-6.83,0a1.42,1.42,0,0,1-1.34-.75c-3.4-5-6.83-10-10.24-15Z" transform="translate(-126 -286)"/><path class="cls-2" d="M429.65,489.94c4.07,1.4,5.79,3.36,6,6.59.28,5.14-2.77,8.35-8.21,8.84-6.07.55-12.14.13-18.21.29-.63,0-.81-.18-.81-.8q0-14,0-27.92c0-.51.06-.82.7-.8,6.16.12,12.33-.32,18.47.22a7.13,7.13,0,0,1,6.36,9.47A6.58,6.58,0,0,1,429.65,489.94Zm-8.71,3.43c-1,0-1.83,0-2.67,0-.49,0-.72.11-.71.66,0,1.55,0,3.11,0,4.66,0,.33,0,.66.48.64,2.1-.08,4.23.25,6.31-.27a2.7,2.7,0,0,0,2.12-2.8,2.66,2.66,0,0,0-2.24-2.69A15.14,15.14,0,0,0,420.94,493.37Zm-.73-11.25c-.63,0-1.27,0-1.91,0-.47,0-.75.07-.74.64,0,1.47,0,2.95,0,4.42,0,.39.13.6.55.59a27.09,27.09,0,0,0,5.25-.22,2.52,2.52,0,0,0,2-2.65,2.46,2.46,0,0,0-2-2.57A12.8,12.8,0,0,0,420.21,482.12Z" transform="translate(-126 -286)"/><path class="cls-5" d="M234.16,442.56a87.79,87.79,0,0,1-35.06-7.26c-1.71-.73-2.42-1.7-2.21-2.89a2.42,2.42,0,0,1,3.46-1.84,120.8,120.8,0,0,0,14.16,4.4,87.78,87.78,0,0,0,13.8,2.11c6.39.46,12.66-.32,18.93-1.23a75.52,75.52,0,0,0,24.23-7.49,116.84,116.84,0,0,0,17.1-11.43c2.6-2,5.2-4,7.83-5.93a2.39,2.39,0,0,1,3.59.45,2,2,0,0,1-.26,3.3,130.52,130.52,0,0,1-28.26,18.76,91.47,91.47,0,0,1-26.87,8.27A70.84,70.84,0,0,1,234.16,442.56Z" transform="translate(-126 -286)"/><path class="cls-4" d="M255.33,413.12a2.7,2.7,0,0,1,2.22-2.74c6.52-2.13,12.95-4.53,19.24-7.28a155.06,155.06,0,0,0,18.64-10.3,202.8,202.8,0,0,1,48-22,121.06,121.06,0,0,1,20.2-4.31c.84-.1,1.56-.09,2,.68a2.06,2.06,0,0,1-.22,2.36,3,3,0,0,1-2,1.16,147.59,147.59,0,0,0-29,7.52,185,185,0,0,0-36.21,18.41A165,165,0,0,1,259,415.19C256.9,415.85,255.35,415,255.33,413.12Z" transform="translate(-126 -286)"/><path class="cls-2" d="M391.65,505.65c-3,0-6,0-8.94,0-.55,0-.65-.31-.76-.7-.35-1.15-.75-2.28-1-3.43a.84.84,0,0,0-1-.75c-3,0-5.91,0-8.87,0a.8.8,0,0,0-.91.7c-.32,1.15-.7,2.29-1,3.45-.14.58-.43.74-1,.74-2.48,0-5,0-7.43,0-.89,0-1.11-.14-.76-1.05q4.32-11.36,8.58-22.76c.61-1.6,1.22-3.2,1.79-4.82a1.15,1.15,0,0,1,1.28-.92c2.71.06,5.43,0,8.15,0,.58,0,.92.09,1.15.72q5.28,14.14,10.61,28.26C391.57,505.26,391.59,505.41,391.65,505.65Zm-16.17-21.5c-1,3.25-2,6.39-2.93,9.52-.19.61,0,.77.6.76,1.56,0,3.11,0,4.67,0,.74,0,1-.1.7-.93-.83-2.52-1.57-5.08-2.36-7.62A4.09,4.09,0,0,0,375.48,484.15Z" transform="translate(-126 -286)"/><path class="cls-2" d="M186.46,505.65c-3,0-5.92,0-8.87,0-.53,0-.64-.3-.75-.72-.32-1.15-.73-2.27-1-3.43a.84.84,0,0,0-1-.73q-4.44,0-8.87,0a.78.78,0,0,0-.91.68c-.31,1.15-.73,2.28-1,3.43-.14.58-.36.78-.95.77q-3.9,0-7.8,0c-.77,0-.73-.25-.51-.83q5.29-14,10.55-28a.9.9,0,0,1,1.05-.68c2.8,0,5.6,0,8.4,0,.47,0,.78.06,1,.6q5.33,14.25,10.69,28.47A1.49,1.49,0,0,1,186.46,505.65Zm-15.91-21.38h-.23q-1.45,4.77-2.93,9.53c-.21.67.22.63.64.63,1.59,0,3.19,0,4.79,0,.67,0,.84-.19.63-.84C172.47,490.5,171.52,487.38,170.55,484.27Z" transform="translate(-126 -286)"/><path class="cls-2" d="M247.81,505.65l7-18.51c1.28-3.39,2.58-6.77,3.82-10.17a1.06,1.06,0,0,1,1.19-.84c2.76,0,5.52,0,8.28,0a.91.91,0,0,1,1.05.68q5.31,14.19,10.66,28.35a2.73,2.73,0,0,1,.06.48h-9c-.48,0-.57-.28-.68-.66-.32-1.15-.7-2.28-1-3.42-.15-.51-.33-.81-1-.8-3,0-6,0-9,0a.68.68,0,0,0-.81.61c-.32,1.19-.72,2.36-1.06,3.55-.11.42-.2.72-.74.72C253.73,505.64,250.86,505.65,247.81,505.65Zm16-21.74c-1.1,3.56-2.08,6.77-3.07,10-.19.63.28.53.62.54h4.92c.49,0,.77-.09.59-.67C265.85,490.6,264.87,487.43,263.78,483.91Z" transform="translate(-126 -286)"/><path class="cls-2" d="M325.6,505.65c-3,0-5.88,0-8.8,0A.72.72,0,0,1,316,505c-.31-1.15-.73-2.27-1-3.43a.91.91,0,0,0-1.06-.82q-4.38.06-8.76,0a.88.88,0,0,0-1,.75c-.29,1.07-.7,2.12-.92,3.21-.16.85-.61.94-1.33.93-2.36,0-4.72-.06-7.08,0-1.08,0-1.15-.25-.8-1.18,3.1-8.14,6.15-16.3,9.24-24.45.49-1.29.56-3.08,1.64-3.71s2.64-.17,4-.18c1.68,0,3.36,0,5,0a.84.84,0,0,1,1,.63q5.36,14.31,10.74,28.62A1.12,1.12,0,0,1,325.6,505.65Zm-16-21.74c-1.08,3.52-2.05,6.7-3,9.87-.19.61.17.65.62.65,1.6,0,3.2,0,4.8,0,.82,0,.8-.28.58-.93-.68-2.07-1.3-4.17-1.94-6.26Z" transform="translate(-126 -286)"/><path class="cls-5" d="M445.64,388.88,439,387a176.61,176.61,0,0,0-22.77-4.84A182.56,182.56,0,0,0,396,380.39a134.29,134.29,0,0,0-57.1,10.23,146.2,146.2,0,0,0-24.24,13L314,404a2.23,2.23,0,0,1-3.18-.46,2.36,2.36,0,0,1,.74-3.26c3.14-2,6.27-4,9.48-5.83a135.12,135.12,0,0,1,26.63-11.88,130.74,130.74,0,0,1,21.19-4.78,141.26,141.26,0,0,1,25.66-1.32A134.16,134.16,0,0,1,436,384.84a103.83,103.83,0,0,1,9.72,4Z" transform="translate(-126 -286)"/><path class="cls-6" d="M429.18,388.22c-2-.39-3.88-.78-5.75-1.12a142.82,142.82,0,0,0-19-2.13,129.37,129.37,0,0,0-17.83.35,131,131,0,0,0-43.65,11.38,135.1,135.1,0,0,0-35.8,24.11c-1.31,1.22-2.64,2.43-4,3.57a2.61,2.61,0,0,1-3.42,0,2.38,2.38,0,0,1-.88-2.77,2.68,2.68,0,0,1,.83-1.14,144.48,144.48,0,0,1,52.18-31.24,118,118,0,0,1,27.33-5.74,136.12,136.12,0,0,1,49,4.13A1.55,1.55,0,0,1,429.18,388.22Z" transform="translate(-126 -286)"/><path class="cls-6" d="M184.94,432.34a110.83,110.83,0,0,0,25.5,10.75,93.74,93.74,0,0,0,31.16,3.44,88.14,88.14,0,0,0,41-13.21c1.93-1.18,3.33-1.09,4.18.31s.34,2.73-1.65,3.93a95.66,95.66,0,0,1-31.71,12.32,84.39,84.39,0,0,1-26.11.86,86.08,86.08,0,0,1-28.28-8.43c-4.42-2.22-8.15-5.45-12.21-8.21-.72-.49-1.39-1.05-2.09-1.58Z" transform="translate(-126 -286)"/><path class="cls-2" d="M235.6,476.15c4.24,0,8.48,0,12.71,0,.85,0,1.21.12,1.17,1.08-.09,1.79,0,3.6,0,5.39,0,.67-.19.89-.88.88-2.4,0-4.8,0-7.19,0-.92,0-1.22.19-1.21,1.16.05,6.59,0,13.18.06,19.77,0,1.1-.31,1.33-1.34,1.29-2.23-.07-4.48-.08-6.71,0-1,0-1.16-.32-1.15-1.21,0-6.59,0-13.18,0-19.77,0-1-.26-1.29-1.25-1.26-2.36.07-4.72,0-7.08,0-.75,0-1-.15-1-1,.07-1.8.06-3.6,0-5.39,0-.83.27-1,1-1C227,476.16,231.32,476.15,235.6,476.15Z" transform="translate(-126 -286)"/><path class="cls-3" d="M313.5,394.23a1.88,1.88,0,0,1-.95,1.83c-8.31,5-15.59,11.51-23.65,16.89a120,120,0,0,1-16.25,9.14c-.29.13-.59.25-.89.35a2.84,2.84,0,0,1-3.71-1.45,2.8,2.8,0,0,1,1.53-3.79c3.2-1.53,6.36-3.14,9.47-4.87,6.47-3.6,12.33-8.08,18.36-12.34A125.41,125.41,0,0,1,310,392.12,2.26,2.26,0,0,1,313.5,394.23Z" transform="translate(-126 -286)"/><path class="cls-3" d="M180.07,415.64a102.79,102.79,0,0,0,17.05,6.9,108,108,0,0,0,18.6,3.76c3.26.36,6.52.53,9.78.57a93.07,93.07,0,0,0,14.44-.93q5-.72,9.85-1.86a2.74,2.74,0,0,1,3.36,1.94,2.68,2.68,0,0,1-2.1,3.34,89.79,89.79,0,0,1-13.36,1.93,86.77,86.77,0,0,1-9,.2,95.44,95.44,0,0,1-35.9-8.2,61,61,0,0,1-12.58-7.12,3.4,3.4,0,0,1-.32-.34Z" transform="translate(-126 -286)"/><path class="cls-2" d="M440.81,490.89c0-4.56,0-9.11,0-13.66,0-.93.27-1.13,1.14-1.11,2.36.07,4.72.06,7.08,0,.75,0,.94.23.94.95q0,13.85,0,27.68c0,.65-.14.92-.85.9-2.44,0-4.88-.05-7.32,0-.81,0-1-.25-1-1C440.83,500.07,440.81,495.48,440.81,490.89Z" transform="translate(-126 -286)"/><path class="cls-3" d="M412.24,375.4a128.81,128.81,0,0,0-20.1-2,140,140,0,0,0-49,7.82c-2,.68-3.95,1.51-5.93,2.25-.82.31-1.7.72-2.31-.35a1.88,1.88,0,0,1,.89-2.55,22.77,22.77,0,0,1,5.48-2,153.21,153.21,0,0,1,24.23-5.44c4.69-.67,9.42-1.07,14.16-1.32,3.68-.18,7.35-.23,11-.12a82,82,0,0,1,20.29,3A1.94,1.94,0,0,1,412.24,375.4Z" transform="translate(-126 -286)"/><path class="cls-4" d="M165,402.65c2.29,1.36,4.5,2.87,6.86,4.13a87.05,87.05,0,0,0,29.7,9.42c.63.09,1.26.15,1.89.24a1.8,1.8,0,0,1,1.75,2,1.65,1.65,0,0,1-2.09,1.57,66.47,66.47,0,0,1-9.32-2.12,81.47,81.47,0,0,1-28-14.21c-.35-.27-.65-.59-1-.88Z" transform="translate(-126 -286)"/><path class="cls-2" d="M167.91,423.19A125.6,125.6,0,0,0,186,437.67a111.49,111.49,0,0,0,18.67,9.89,3.54,3.54,0,0,1,2.06,1.53,1.72,1.72,0,0,1,0,1.92c-.52.66-1.16.27-1.74,0a95.78,95.78,0,0,1-11.31-5.93,117.81,117.81,0,0,1-25.43-20.92,7,7,0,0,1-.55-.76Z" transform="translate(-126 -286)"/><path class="cls-2" d="M236.93,458.88a98.45,98.45,0,0,1-13.14-1.73A2,2,0,0,1,222,454.8c.18-1.1,1.07-1.69,2.45-1.47q4.55.74,9.13,1.08c2.28.17,4.55.09,6.82.14a2.24,2.24,0,0,1,2.42,2.25,2.06,2.06,0,0,1-2,2.07C239.49,458.91,238.21,458.88,236.93,458.88Z" transform="translate(-126 -286)"/><path class="cls-5" d="M154.87,401.5c2.74,2.26,5.33,4.69,8.1,6.92a158.65,158.65,0,0,0,16.51,11.68,5.88,5.88,0,0,1,1.64,1.37c.57.75.87,1.61.14,2.39a1.59,1.59,0,0,1-2.28,0c-1.68-1.22-3.4-2.39-5-3.66a125.83,125.83,0,0,1-15.09-13.64,27.43,27.43,0,0,1-4.13-4.92Z" transform="translate(-126 -286)"/><path class="cls-4" d="M407.44,372.15c-3.13-.59-6.23-1.33-9.39-1.77a112.59,112.59,0,0,0-12-1c-1.8-.06-3.59-.09-5.39-.11-1.56,0-2.29-.53-2.31-1.63s.85-1.86,2.46-1.75a92.26,92.26,0,0,1,14.4,2.2,69.87,69.87,0,0,1,12.37,4Z" transform="translate(-126 -286)"/><path class="cls-2" d="M217.25,453.55a3.08,3.08,0,0,1-3.18,3.26,3.23,3.23,0,1,1-.06-6.45A3.08,3.08,0,0,1,217.25,453.55Z" transform="translate(-126 -286)"/><path class="cls-2" d="M266.18,453.73a3.21,3.21,0,0,1-3.3,3.21,3.26,3.26,0,1,1,.11-6.51A3.18,3.18,0,0,1,266.18,453.73Z" transform="translate(-126 -286)"/><path class="cls-2" d="M248.59,456a3.16,3.16,0,0,1,3.3-3.18,3.24,3.24,0,0,1,3.21,3.31,3.27,3.27,0,0,1-3.34,3.19A3.18,3.18,0,0,1,248.59,456Z" transform="translate(-126 -286)"/><path class="cls-6" d="M296.21,429.35a3.07,3.07,0,0,1-3.27,3.17,3.18,3.18,0,0,1-3.19-3.3,3.24,3.24,0,0,1,3.32-3.2A3.13,3.13,0,0,1,296.21,429.35Z" transform="translate(-126 -286)"/><path class="cls-5" d="M192.76,427.79A3.17,3.17,0,0,1,189.5,431a3.25,3.25,0,0,1-3.24-3.28,3.13,3.13,0,0,1,3.28-3.2A3.1,3.1,0,0,1,192.76,427.79Z" transform="translate(-126 -286)"/><path class="cls-5" d="M308.41,407.15a3.13,3.13,0,0,1-3.19,3.28,3.26,3.26,0,0,1-3.3-3.23,3.18,3.18,0,0,1,3.24-3.26A3.11,3.11,0,0,1,308.41,407.15Z" transform="translate(-126 -286)"/><path class="cls-4" d="M215.79,418.46a3.22,3.22,0,0,1-3.29,3.23,3.26,3.26,0,0,1-3.22-3.31,3.26,3.26,0,0,1,6.51.08Z" transform="translate(-126 -286)"/><path class="cls-4" d="M227.35,418.62a3.14,3.14,0,0,1-3.19,3.28,3.29,3.29,0,0,1,0-6.57A3.1,3.1,0,0,1,227.35,418.62Z" transform="translate(-126 -286)"/><path class="cls-4" d="M368.84,367.74a3.24,3.24,0,0,1,3.23-3.3,3.36,3.36,0,0,1,3.28,3.29,3.31,3.31,0,0,1-3.26,3.29A3.26,3.26,0,0,1,368.84,367.74Z" transform="translate(-126 -286)"/><path class="cls-4" d="M232.51,417.9a3.08,3.08,0,0,1,3.17-3.28,3.32,3.32,0,0,1,3.29,3.26,3.36,3.36,0,0,1-3.27,3.29A3.11,3.11,0,0,1,232.51,417.9Z" transform="translate(-126 -286)"/><path class="cls-4" d="M249.87,416a3.21,3.21,0,0,1-3.28,3.22,3.36,3.36,0,0,1-3.21-3.36,3.26,3.26,0,0,1,3.34-3.2A3.21,3.21,0,0,1,249.87,416Z" transform="translate(-126 -286)"/><path class="cls-3" d="M260.38,426.78a3.15,3.15,0,0,1-3.33-3.14,3.28,3.28,0,0,1,3.24-3.3,3.11,3.11,0,0,1,3.26,3.21A3,3,0,0,1,260.38,426.78Z" transform="translate(-126 -286)"/><path class="cls-3" d="M328.91,388.41a3.05,3.05,0,0,1-3.27-3.16,3.18,3.18,0,0,1,3.15-3.33,3.38,3.38,0,0,1,3.35,3.22A3.19,3.19,0,0,1,328.91,388.41Z" transform="translate(-126 -286)"/><path class="cls-3" d="M319.3,386.43a3.09,3.09,0,0,1,3.26,3.17,3.25,3.25,0,1,1-6.49,0A3,3,0,0,1,319.3,386.43Z" transform="translate(-126 -286)"/><path class="cls-5" d="M431,388.43l2,.7A2.2,2.2,0,0,1,431,388.43Z" transform="translate(-126 -286)"/><path class="cls-4" d="M164.85,402.81a.76.76,0,0,1-.51-.46l.11-.11a.76.76,0,0,1,.57.41Z" transform="translate(-126 -286)"/><path class="cls-5" d="M446.84,389.29c-.08.06-.14.14-.16.13a.31.31,0,0,1-.16-.14s0-.09.06-.14Z" transform="translate(-126 -286)"/><path class="cls-6" d="M429.38,388.25c.21-.21.4-.13.6,0A.4.4,0,0,1,429.38,388.25Z" transform="translate(-126 -286)"/><path class="cls-6" d="M184.51,432.29l-.36-.18s.11-.13.12-.13a3.81,3.81,0,0,1,.32.24Z" transform="translate(-126 -286)"/><path class="cls-3" d="M179.91,415.83l-.42-.32.1-.11.48.24Z" transform="translate(-126 -286)"/><path class="cls-4" d="M164.09,402.11l-.31-.23.08-.07a3.87,3.87,0,0,1,.34.21Z" transform="translate(-126 -286)"/><path class="cls-5" d="M445.69,388.83l.33.1s-.09.13-.11.12a2,2,0,0,1-.27-.17Z" transform="translate(-126 -286)"/><path class="cls-4" d="M407.55,372l.36.17c-.18.18-.33.09-.47-.05Z" transform="translate(-126 -286)"/><path class="cls-2" d="M166.8,422.42l-.33-.38.13-.13.4.38Z" transform="translate(-126 -286)"/><path class="cls-2" d="M167.66,423l.25.24-.17.22-.25-.24Z" transform="translate(-126 -286)"/><path class="cls-2" d="M167.49,423.17l-.23-.24.17-.22.23.24Z" transform="translate(-126 -286)"/><path class="cls-2" d="M167.18,422.46l.25.25-.17.22-.23-.26Z" transform="translate(-126 -286)"/><path class="cls-2" d="M167,422.67l-.23-.25.2-.13.18.17Z" transform="translate(-126 -286)"/><path class="cls-6" d="M184.77,432.52l-.26-.23.08-.07.35.12Z" transform="translate(-126 -286)"/><path class="cls-2" d="M166.36,421.67l.24.24-.13.13-.21-.27A.94.94,0,0,1,166.36,421.67Z" transform="translate(-126 -286)"/><path class="cls-2" d="M166.26,421.77c-.09-.08-.3-.12-.1-.28a1.9,1.9,0,0,1,.2.18A.94.94,0,0,0,166.26,421.77Z" transform="translate(-126 -286)"/><path class="cls-3" d="M179.49,415.51l-.14-.2.24.09Z" transform="translate(-126 -286)"/><path class="cls-3" d="M179,415.16l-.07-.07s.05,0,.07,0,.05,0,.08.06Z" transform="translate(-126 -286)"/><path class="cls-4" d="M164.34,402.35l-.25-.24.11-.09.25.22Z" transform="translate(-126 -286)"/><path class="cls-5" d="M154.62,401.27l.25.23-.15.16-.24-.24Z" transform="translate(-126 -286)"/><path class="cls-5" d="M154.48,401.42l-.23-.25.13-.14.24.24Z" transform="translate(-126 -286)"/><path class="cls-5" d="M154.25,401.17l-.2-.28.08-.09.25.23Z" transform="translate(-126 -286)"/><path class="cls-5" d="M154.05,400.89c-.09-.06-.23-.12-.06-.24,0,0,.09.1.14.15Z" transform="translate(-126 -286)"/><path class="cls-1" d="M464.39,490.92a14.68,14.68,0,0,1,.51-4,5.57,5.57,0,0,1,5.73-4.31,5.63,5.63,0,0,1,5.69,4.39,16.17,16.17,0,0,1-.17,8.4,5.23,5.23,0,0,1-5,3.94c-2.81.15-4.93-1-5.92-3.36A13.33,13.33,0,0,1,464.39,490.92Z" transform="translate(-126 -286)"/><path class="cls-1" d="M420.94,493.37a15.14,15.14,0,0,1,3.3.19,2.66,2.66,0,0,1,2.24,2.69,2.7,2.7,0,0,1-2.12,2.8c-2.08.52-4.21.19-6.31.27-.48,0-.48-.31-.48-.64,0-1.55,0-3.11,0-4.66,0-.55.22-.68.71-.66C419.11,493.39,420,493.37,420.94,493.37Z" transform="translate(-126 -286)"/><path class="cls-1" d="M420.21,482.12a12.8,12.8,0,0,1,3.09.21,2.46,2.46,0,0,1,2,2.57,2.52,2.52,0,0,1-2,2.65,27.09,27.09,0,0,1-5.25.22c-.42,0-.55-.2-.55-.59,0-1.47,0-2.95,0-4.42,0-.57.27-.66.74-.64C418.94,482.14,419.58,482.12,420.21,482.12Z" transform="translate(-126 -286)"/><path class="cls-1" d="M375.48,484.15a4.09,4.09,0,0,1,.68,1.74c.79,2.54,1.53,5.1,2.36,7.62.28.83,0,.95-.7.93-1.56,0-3.11,0-4.67,0-.59,0-.79-.15-.6-.76C373.53,490.54,374.48,487.4,375.48,484.15Z" transform="translate(-126 -286)"/><path class="cls-1" d="M170.55,484.27c1,3.11,1.92,6.23,2.9,9.33.21.65,0,.85-.63.84-1.6,0-3.2,0-4.79,0-.42,0-.85,0-.64-.63q1.49-4.76,2.93-9.53Z" transform="translate(-126 -286)"/><path class="cls-1" d="M263.78,483.91c1.09,3.52,2.07,6.69,3.06,9.85.18.58-.1.68-.59.67h-4.92c-.34,0-.81.09-.62-.54C261.7,490.68,262.68,487.47,263.78,483.91Z" transform="translate(-126 -286)"/><path class="cls-1" d="M309.57,483.91l1,3.34c.64,2.09,1.26,4.19,1.94,6.26.22.65.24.95-.58.93-1.6,0-3.2,0-4.8,0-.45,0-.81,0-.62-.65C307.52,490.61,308.49,487.43,309.57,483.91Z" transform="translate(-126 -286)"/></svg>