<?xml version="1.0" encoding="UTF-8"?>
<svg id="Layer_1" xmlns="http://www.w3.org/2000/svg" version="1.1" viewBox="0 0 920 545">
  <!-- Generator: Adobe Illustrator 29.2.1, SVG Export Plug-In . SVG Version: 2.1.0 Build 116)  -->
  <defs>
    <style>
      .st0, .st1, .st2 {
        fill: none;
      }

      .st3, .st4, .st5, .st6, .st7, .st8, .st9, .st10, .st11, .st12, .st13, .st14, .st15 {
        isolation: isolate;
      }

      .st3, .st4, .st7, .st8, .st9, .st11, .st14 {
        font-family: Helvetica-Bold, Helvetica;
        font-weight: 700;
      }

      .st3, .st5, .st16 {
        fill: #475569;
      }

      .st3, .st6, .st8, .st9, .st11 {
        font-size: 13px;
      }

      .st4, .st17 {
        fill: #94a3b8;
      }

      .st4, .st10, .st12, .st13, .st14 {
        font-size: 11px;
      }

      .st4, .st14 {
        letter-spacing: .1em;
      }

      .st5, .st15 {
        font-size: 12px;
      }

      .st18, .st19 {
        fill: #f0fdfa;
        stroke: #0d9488;
      }

      .st18, .st1 {
        stroke-width: 1.5px;
      }

      .st6, .st13, .st15 {
        fill: #64748b;
      }

      .st20 {
        letter-spacing: 0em;
      }

      .st20, .st21, .st22, .st23, .st24, .st25, .st26, .st27, .st28, .st29 {
        font-family: MyriadPro-Regular, 'Myriad Pro';
      }

      .st21 {
        letter-spacing: 0em;
      }

      .st22 {
        letter-spacing: 0em;
      }

      .st23 {
        letter-spacing: 0em;
      }

      .st30 {
        font-family: AppleBraille-Outline6Dot, 'Apple Braille';
      }

      .st24 {
        letter-spacing: 0em;
      }

      .st25 {
        letter-spacing: 0em;
      }

      .st26 {
        letter-spacing: 0em;
      }

      .st1 {
        stroke-dasharray: 4 4;
      }

      .st1, .st2, .st31 {
        stroke: #cbd5e1;
      }

      .st27 {
        letter-spacing: 0em;
      }

      .st2 {
        stroke-dasharray: 3 5;
      }

      .st28 {
        letter-spacing: 0em;
      }

      .st31 {
        fill: #f8fafc;
      }

      .st7 {
        fill: #0f172a;
        font-size: 20px;
      }

      .st8, .st9 {
        fill: #0f766e;
      }

      .st9 {
        letter-spacing: 0em;
      }

      .st10, .st14 {
        fill: #0d9488;
      }

      .st11 {
        fill: #b45309;
      }

      .st12 {
        fill: #92400e;
      }

      .st32 {
        fill: #fffbeb;
        stroke: #f59e0b;
      }

      .st15 {
        font-family: Helvetica-Oblique, Helvetica;
        font-style: oblique;
      }
    </style>
  </defs>
  <text class="st7" transform="translate(238.5 32)"><tspan x="0" y="0">Two tracks, and only one of them opens a gate</tspan></text>
  <text class="st6" transform="translate(242.3 54)"><tspan class="st29" x="0" y="0">Everything</tspan><tspan class="st30" x="58.6" y="0"> </tspan><tspan class="st29" x="63" y="0">the</tspan><tspan class="st30" x="81.1" y="0"> </tspan><tspan class="st29" x="85.5" y="0">field</tspan><tspan class="st30" x="109.2" y="0"> </tspan><tspan class="st29" x="113.6" y="0">standardizes</tspan><tspan class="st30" x="182" y="0"> </tspan><tspan class="st23" x="186.5" y="0">sits</tspan><tspan class="st30" x="204.1" y="0"> </tspan><tspan class="st29" x="208.6" y="0">on</tspan><tspan class="st30" x="222.9" y="0"> </tspan><tspan class="st23" x="227.4" y="0">the</tspan><tspan class="st30" x="245.4" y="0"> </tspan><tspan class="st29" x="249.8" y="0">left.</tspan><tspan class="st30" x="270.2" y="0"> </tspan><tspan class="st29" x="274.6" y="0">Every</tspan><tspan class="st30" x="304.2" y="0"> </tspan><tspan class="st29" x="308.6" y="0">barrier</tspan><tspan class="st30" x="344.6" y="0"> </tspan><tspan class="st20" x="349" y="0">to</tspan><tspan class="st30" x="360.5" y="0"> </tspan><tspan class="st29" x="364.9" y="0">deployment</tspan><tspan class="st30" x="431.4" y="0"> </tspan><tspan class="st25" x="435.8" y="0">sits</tspan><tspan class="st30" x="453.4" y="0"> </tspan><tspan class="st29" x="457.9" y="0">on</tspan><tspan class="st30" x="472.2" y="0"> </tspan><tspan class="st29" x="476.7" y="0">the</tspan><tspan class="st30" x="494.7" y="0"> </tspan><tspan class="st29" x="499.2" y="0">right.</tspan></text>
  <text class="st4" transform="translate(151.2 86)"><tspan x="0" y="0">WHAT THE FIELD BUILDS</tspan></text>
  <text class="st14" transform="translate(599.4 86)"><tspan x="0" y="0">WHAT GATES DEPLOYMENT</tspan></text>
  <line class="st2" x1="466" y1="98" x2="466" y2="420"/>
  <rect class="st31" x="30" y="100" width="410" height="60" rx="6" ry="6"/>
  <text class="st3" transform="translate(111.7 124)"><tspan x="0" y="0">MiAIRR · AIRR Data Commons · OGRDB</tspan></text>
  <text class="st13" transform="translate(165.4 144)"><tspan class="st29" x="0" y="0">Standards</tspan><tspan class="st30" x="46.1" y="0"> </tspan><tspan class="st29" x="49.9" y="0">for</tspan><tspan class="st30" x="62.7" y="0"> </tspan><tspan class="st27" x="66.5" y="0">describing</tspan><tspan class="st30" x="114.8" y="0"> </tspan><tspan class="st29" x="118.5" y="0">a</tspan><tspan class="st30" x="123.8" y="0"> </tspan><tspan class="st29" x="127.6" y="0">repertoire</tspan></text>
  <rect class="st19" x="492" y="100" width="398" height="60" rx="6" ry="6"/>
  <text class="st8" transform="translate(605 124)"><tspan x="0" y="0">The intended use statement</tspan></text>
  <text class="st10" transform="translate(612 144)"><tspan class="st29" x="0" y="0">Who</tspan><tspan class="st30" x="21.4" y="0"> </tspan><tspan class="st29" x="25.2" y="0">gets</tspan><tspan class="st30" x="44.9" y="0"> </tspan><tspan class="st29" x="48.6" y="0">tested,</tspan><tspan class="st30" x="79.8" y="0"> </tspan><tspan class="st29" x="83.5" y="0">and</tspan><tspan class="st30" x="101.1" y="0"> </tspan><tspan class="st29" x="104.9" y="0">what</tspan><tspan class="st30" x="128" y="0"> </tspan><tspan class="st29" x="131.8" y="0">decision</tspan><tspan class="st30" x="170.1" y="0"> </tspan><tspan class="st29" x="173.9" y="0">changes</tspan></text>
  <rect class="st31" x="30" y="172" width="410" height="60" rx="6" ry="6"/>
  <text class="st3" transform="translate(118 196)"><tspan x="0" y="0">LoD · precision · reproducibility · EQA</tspan></text>
  <text class="st13" transform="translate(148.5 216)"><tspan class="st29" x="0" y="0">Analytical</tspan><tspan class="st30" x="45" y="0"> </tspan><tspan class="st29" x="48.7" y="0">performance,</tspan><tspan class="st30" x="110.2" y="0"> </tspan><tspan class="st29" x="114" y="0">reproduced</tspan><tspan class="st30" x="167.9" y="0"> </tspan><tspan class="st29" x="171.7" y="0">across</tspan><tspan class="st30" x="200.2" y="0"> </tspan><tspan class="st29" x="204" y="0">labs</tspan></text>
  <rect class="st19" x="492" y="172" width="398" height="60" rx="6" ry="6"/>
  <text class="st8" transform="translate(641.9 196)"><tspan x="0" y="0">The comparator</tspan></text>
  <text class="st10" transform="translate(600.8 216)"><tspan class="st29" x="0" y="0">The</tspan><tspan class="st30" x="17.1" y="0"> </tspan><tspan class="st29" x="20.8" y="0">population</tspan><tspan class="st30" x="71.7" y="0"> </tspan><tspan class="st27" x="75.5" y="0">the</tspan><tspan class="st30" x="90.7" y="0"> </tspan><tspan class="st29" x="94.5" y="0">clinician</tspan><tspan class="st30" x="132.2" y="0"> </tspan><tspan class="st22" x="135.9" y="0">is</tspan><tspan class="st30" x="142.9" y="0"> </tspan><tspan class="st29" x="146.6" y="0">choosing</tspan><tspan class="st30" x="188.9" y="0"> </tspan><tspan class="st29" x="192.7" y="0">between</tspan></text>
  <rect class="st31" x="30" y="244" width="410" height="60" rx="6" ry="6"/>
  <text class="st3" transform="translate(102.2 268)"><tspan x="0" y="0">Pipeline benchmarking · ML interpretability</tspan></text>
  <text class="st13" transform="translate(169.2 288)"><tspan class="st29" x="0" y="0">Trustworthy</tspan><tspan class="st30" x="55.8" y="0"> </tspan><tspan class="st22" x="59.5" y="0">inference</tspan><tspan class="st30" x="102.6" y="0"> </tspan><tspan class="st29" x="106.4" y="0">from</tspan><tspan class="st30" x="128.4" y="0"> </tspan><tspan class="st29" x="132.1" y="0">sequence</tspan></text>
  <rect class="st32" x="492" y="244" width="398" height="60" rx="6" ry="6"/>
  <text class="st11" transform="translate(650.5 268)"><tspan x="0" y="0">Pre-analytics</tspan></text>
  <text class="st12" transform="translate(595.1 288)"><tspan class="st29" x="0" y="0">Lymphocyte</tspan><tspan class="st30" x="57.2" y="0"> </tspan><tspan class="st22" x="61" y="0">count,</tspan><tspan class="st30" x="90" y="0"> </tspan><tspan class="st29" x="93.8" y="0">therapy</tspan><tspan class="st30" x="129.4" y="0"> </tspan><tspan class="st29" x="133.1" y="0">timing,</tspan><tspan class="st30" x="165.6" y="0"> </tspan><tspan class="st29" x="169.4" y="0">immunosuppression</tspan></text>
  <rect class="st31" x="30" y="316" width="410" height="60" rx="6" ry="6"/>
  <text class="st3" transform="translate(137.5 340)"><tspan x="0" y="0">CLIA / CAP analytical validation</tspan></text>
  <text class="st13" transform="translate(165.4 360)"><tspan class="st29" x="0" y="0">The</tspan><tspan class="st30" x="17.1" y="0"> </tspan><tspan class="st29" x="20.8" y="0">laboratory&apos;s</tspan><tspan class="st30" x="74.8" y="0"> </tspan><tspan class="st29" x="78.6" y="0">standard</tspan><tspan class="st30" x="119.3" y="0"> </tspan><tspan class="st29" x="123" y="0">LDT</tspan><tspan class="st30" x="141" y="0"> </tspan><tspan class="st29" x="144.8" y="0">process</tspan></text>
  <rect class="st32" x="492" y="316" width="398" height="60" rx="6" ry="6"/>
  <text class="st11" transform="translate(661.4 340)"><tspan x="0" y="0">Coverage</tspan></text>
  <text class="st12" transform="translate(595.1 360)"><tspan class="st29" x="0" y="0">The</tspan><tspan class="st30" x="17.1" y="0"> </tspan><tspan class="st27" x="20.8" y="0">uncovered</tspan><tspan class="st30" x="70.1" y="0"> </tspan><tspan class="st22" x="73.8" y="0">window</tspan><tspan class="st30" x="111" y="0"> </tspan><tspan class="st29" x="114.7" y="0">before</tspan><tspan class="st30" x="144.9" y="0"> </tspan><tspan class="st29" x="148.6" y="0">a</tspan><tspan class="st30" x="153.9" y="0"> </tspan><tspan class="st29" x="157.7" y="0">dedicated</tspan><tspan class="st30" x="203.8" y="0"> </tspan><tspan class="st27" x="207.5" y="0">code</tspan><tspan class="st30" x="230.2" y="0"> </tspan><tspan class="st22" x="234" y="0">exists</tspan></text>
  <path class="st0" d=""/>
  <path class="st17" d="M238.6,394.8l-3.6,7.2-3.6-7.2h7.2Z"/>
  <path class="st17" d="M235,402" marker-end="url(#arrDownLight)"/>
  <line class="st1" x1="30" y1="412" x2="440" y2="412"/>
  <text class="st15" transform="translate(149.4 434)"><tspan x="0" y="0">Necessary. No gate opens here.</tspan></text>
  <path class="st0" d=""/>
  <path class="st16" d="M695.2,407.6l-4.2,8.4-4.2-8.4h8.4Z"/>
  <path class="st16" d="M691,416" marker-end="url(#arrDown)"/>
  <rect class="st18" x="492" y="424" width="398" height="44" rx="14" ry="14"/>
  <text class="st9" transform="translate(576 451)"><tspan x="0" y="0">ROUTINE CLINICAL DEPLOYMENT</tspan></text>
  <text class="st5" transform="translate(177 503)"><tspan class="st29" x="0" y="0">The</tspan><tspan class="st30" x="18.6" y="0"> </tspan><tspan class="st29" x="22.7" y="0">standardization</tspan><tspan class="st30" x="100.9" y="0"> </tspan><tspan class="st29" x="105" y="0">agenda</tspan><tspan class="st30" x="142.7" y="0"> </tspan><tspan class="st21" x="146.8" y="0">and</tspan><tspan class="st30" x="166" y="0"> </tspan><tspan class="st29" x="170.1" y="0">the</tspan><tspan class="st30" x="186.8" y="0"> </tspan><tspan class="st26" x="190.9" y="0">deployment</tspan><tspan class="st30" x="252.2" y="0"> </tspan><tspan class="st26" x="256.3" y="0">agenda</tspan><tspan class="st30" x="294" y="0"> </tspan><tspan class="st29" x="298.1" y="0">barely</tspan><tspan class="st30" x="329.2" y="0"> </tspan><tspan class="st29" x="333.3" y="0">intersect.</tspan><tspan class="st30" x="379.2" y="0"> </tspan><tspan class="st29" x="383.3" y="0">Every</tspan><tspan class="st30" x="410.6" y="0"> </tspan><tspan class="st29" x="414.7" y="0">item</tspan><tspan class="st30" x="437.5" y="0"> </tspan><tspan class="st29" x="441.6" y="0">on</tspan><tspan class="st30" x="454.9" y="0"> </tspan><tspan class="st29" x="459" y="0">the</tspan><tspan class="st30" x="475.6" y="0"> </tspan><tspan class="st29" x="479.7" y="0">left</tspan><tspan class="st30" x="496" y="0"> </tspan><tspan class="st24" x="500.1" y="0">is</tspan><tspan class="st30" x="507.7" y="0"> </tspan><tspan class="st28" x="511.8" y="0">necessary</tspan><tspan class="st30" x="560.7" y="0"> </tspan><tspan class="st29" x="564.8" y="0">and</tspan><tspan class="st30" x="584" y="0"> </tspan><tspan class="st29" x="588.1" y="0">none</tspan><tspan class="st30" x="614" y="0"> </tspan><tspan class="st29" x="618.1" y="0">of</tspan><tspan class="st30" x="628.2" y="0"> </tspan><tspan class="st29" x="632.3" y="0">them</tspan><tspan class="st30" x="659" y="0"> </tspan><tspan class="st24" x="663.1" y="0">is</tspan><tspan class="st30" x="670.6" y="0"> </tspan><tspan class="st29" x="674.7" y="0">sufficient.</tspan></text>
  <text class="st15" transform="translate(289.5 522)"><tspan x="0" y="0">The field validates the assay. The clinic reimburses the decision.</tspan></text>
</svg>