<?xml version="1.0" encoding="UTF-8"?>
<svg viewBox="0 0 1080 470" xmlns="http://www.w3.org/2000/svg" role="img" font-family="system-ui, -apple-system, sans-serif">
  <title>Functional Isomorphisms: Immune Mechanism, Computational Primitive, Utility</title>
  <desc>Five rows linking the most salient immune mechanisms to their computational primitives and utility: V(D)J recombination, two-signal activation, danger theory, idiotypic network, and memory cells.</desc>

  <text x="540" y="30" text-anchor="middle" font-size="20" font-weight="700" fill="#0f172a">Functional isomorphisms across immunology and computation</text>

  <text x="180" y="68" text-anchor="middle" font-size="11" font-weight="600" letter-spacing="1.5" fill="#64748b">IMMUNE MECHANISM</text>
  <text x="540" y="68" text-anchor="middle" font-size="11" font-weight="600" letter-spacing="1.5" fill="#0d9488">COMPUTATIONAL PRIMITIVE</text>
  <text x="900" y="68" text-anchor="middle" font-size="11" font-weight="600" letter-spacing="1.5" fill="#475569">UTILITY</text>

  <defs>
    <marker id="iarrow3" viewBox="0 0 10 10" refX="9" refY="5" markerWidth="6" markerHeight="6" orient="auto">
      <path d="M 0 0 L 10 5 L 0 10 z" fill="#94a3b8"/>
    </marker>
  </defs>

  <g transform="translate(0, 90)">
    <rect x="20" y="0" width="320" height="60" rx="6" fill="#f1f5f9" stroke="#cbd5e1"/>
    <text x="180" y="22" text-anchor="middle" font-size="13" font-weight="600" fill="#0f172a">V(D)J recombination</text>
    <text x="180" y="42" text-anchor="middle" font-size="10.5" fill="#64748b">gene library, non-uniform prior</text>
    <line x1="345" y1="30" x2="370" y2="30" stroke="#94a3b8" stroke-width="1.4" marker-end="url(#iarrow3)"/>
    <rect x="380" y="0" width="320" height="60" rx="6" fill="#f0fdfa" stroke="#0d9488"/>
    <text x="540" y="22" text-anchor="middle" font-size="13" font-weight="600" fill="#0f172a">Latent-space sampling</text>
    <text x="540" y="42" text-anchor="middle" font-size="10.5" fill="#0f766e">combinatorial init from a learned prior</text>
    <line x1="705" y1="30" x2="730" y2="30" stroke="#94a3b8" stroke-width="1.4" marker-end="url(#iarrow3)"/>
    <rect x="740" y="0" width="320" height="60" rx="6" fill="#f8fafc" stroke="#94a3b8" stroke-dasharray="3 3"/>
    <text x="900" y="22" text-anchor="middle" font-size="12" font-weight="600" fill="#334155">Evolution-informed init</text>
    <text x="900" y="42" text-anchor="middle" font-size="10.5" fill="#64748b">structured priors instead of random</text>
  </g>

  <g transform="translate(0, 165)">
    <rect x="20" y="0" width="320" height="60" rx="6" fill="#f1f5f9" stroke="#cbd5e1"/>
    <text x="180" y="22" text-anchor="middle" font-size="13" font-weight="600" fill="#0f172a">Two-signal activation</text>
    <text x="180" y="42" text-anchor="middle" font-size="10.5" fill="#64748b">antigen plus costimulation, else anergy</text>
    <line x1="345" y1="30" x2="370" y2="30" stroke="#94a3b8" stroke-width="1.4" marker-end="url(#iarrow3)"/>
    <rect x="380" y="0" width="320" height="60" rx="6" fill="#f0fdfa" stroke="#0d9488"/>
    <text x="540" y="22" text-anchor="middle" font-size="13" font-weight="600" fill="#0f172a">Conjunctive gating with anergy</text>
    <text x="540" y="42" text-anchor="middle" font-size="10.5" fill="#0f766e">asymmetric tolerance for unconfirmed signals</text>
    <line x1="705" y1="30" x2="730" y2="30" stroke="#94a3b8" stroke-width="1.4" marker-end="url(#iarrow3)"/>
    <rect x="740" y="0" width="320" height="60" rx="6" fill="#f8fafc" stroke="#94a3b8" stroke-dasharray="3 3"/>
    <text x="900" y="22" text-anchor="middle" font-size="12" font-weight="600" fill="#334155">Fewer false positives</text>
    <text x="900" y="42" text-anchor="middle" font-size="10.5" fill="#64748b">anergy on unconfirmed activations</text>
  </g>

  <g transform="translate(0, 240)">
    <rect x="20" y="0" width="320" height="60" rx="6" fill="#f1f5f9" stroke="#cbd5e1"/>
    <text x="180" y="22" text-anchor="middle" font-size="13" font-weight="600" fill="#0f172a">Danger theory</text>
    <text x="180" y="42" text-anchor="middle" font-size="10.5" fill="#64748b">context-dependent DAMP activation</text>
    <line x1="345" y1="30" x2="370" y2="30" stroke="#94a3b8" stroke-width="1.4" marker-end="url(#iarrow3)"/>
    <rect x="380" y="0" width="320" height="60" rx="6" fill="#f0fdfa" stroke="#0d9488"/>
    <text x="540" y="22" text-anchor="middle" font-size="13" font-weight="600" fill="#0f172a">Context-conditioned anomaly score</text>
    <text x="540" y="42" text-anchor="middle" font-size="10.5" fill="#0f766e">dynamic self set tracks the environment</text>
    <line x1="705" y1="30" x2="730" y2="30" stroke="#94a3b8" stroke-width="1.4" marker-end="url(#iarrow3)"/>
    <rect x="740" y="0" width="320" height="60" rx="6" fill="#f8fafc" stroke="#94a3b8" stroke-dasharray="3 3"/>
    <text x="900" y="22" text-anchor="middle" font-size="12" font-weight="600" fill="#334155">Distribution-drift robustness</text>
    <text x="900" y="42" text-anchor="middle" font-size="10.5" fill="#64748b">handles non-stationary worlds</text>
  </g>

  <g transform="translate(0, 315)">
    <rect x="20" y="0" width="320" height="60" rx="6" fill="#f1f5f9" stroke="#cbd5e1"/>
    <text x="180" y="22" text-anchor="middle" font-size="13" font-weight="600" fill="#0f172a">Idiotypic network</text>
    <text x="180" y="42" text-anchor="middle" font-size="10.5" fill="#64748b">antibodies recognize each other</text>
    <line x1="345" y1="30" x2="370" y2="30" stroke="#94a3b8" stroke-width="1.4" marker-end="url(#iarrow3)"/>
    <rect x="380" y="0" width="320" height="60" rx="6" fill="#f0fdfa" stroke="#0d9488"/>
    <text x="540" y="22" text-anchor="middle" font-size="13" font-weight="600" fill="#0f172a">Signed-edge GNN</text>
    <text x="540" y="42" text-anchor="middle" font-size="10.5" fill="#0f766e">activating and suppressing edges</text>
    <line x1="705" y1="30" x2="730" y2="30" stroke="#94a3b8" stroke-width="1.4" marker-end="url(#iarrow3)"/>
    <rect x="740" y="0" width="320" height="60" rx="6" fill="#f8fafc" stroke="#94a3b8" stroke-dasharray="3 3"/>
    <text x="900" y="22" text-anchor="middle" font-size="12" font-weight="600" fill="#334155">Unsupervised regularization</text>
    <text x="900" y="42" text-anchor="middle" font-size="10.5" fill="#64748b">dynamic equilibrium between detectors</text>
  </g>

  <g transform="translate(0, 390)">
    <rect x="20" y="0" width="320" height="60" rx="6" fill="#f1f5f9" stroke="#cbd5e1"/>
    <text x="180" y="22" text-anchor="middle" font-size="13" font-weight="600" fill="#0f172a">Memory B and T cells</text>
    <text x="180" y="42" text-anchor="middle" font-size="10.5" fill="#64748b">long-lived, low-frequency, reactivatable</text>
    <line x1="345" y1="30" x2="370" y2="30" stroke="#94a3b8" stroke-width="1.4" marker-end="url(#iarrow3)"/>
    <rect x="380" y="0" width="320" height="60" rx="6" fill="#f0fdfa" stroke="#0d9488"/>
    <text x="540" y="22" text-anchor="middle" font-size="13" font-weight="600" fill="#0f172a">Reactivatable parameters</text>
    <text x="540" y="42" text-anchor="middle" font-size="10.5" fill="#0f766e">stable through new training</text>
    <line x1="705" y1="30" x2="730" y2="30" stroke="#94a3b8" stroke-width="1.4" marker-end="url(#iarrow3)"/>
    <rect x="740" y="0" width="320" height="60" rx="6" fill="#f8fafc" stroke="#94a3b8" stroke-dasharray="3 3"/>
    <text x="900" y="22" text-anchor="middle" font-size="12" font-weight="600" fill="#334155">Continual learning</text>
    <text x="900" y="42" text-anchor="middle" font-size="10.5" fill="#64748b">no catastrophic forgetting</text>
  </g>
</svg>